<?xml version="1.0" encoding="UTF-8"?>
<svg xmlns="http://www.w3.org/2000/svg" version="1.1" xmlns:cc="http://creativecommons.org/ns#" xmlns:dc="http://purl.org/dc/elements/1.1/" xmlns:inkscape="http://www.inkscape.org/namespaces/inkscape" xmlns:rdf="http://www.w3.org/1999/02/22-rdf-syntax-ns#" xmlns:sodipodi="http://sodipodi.sourceforge.net/DTD/sodipodi-0.dtd" xmlns:svg="http://www.w3.org/2000/svg" viewBox="0 0 226.33 75.13">
  <!-- Generator: Adobe Illustrator 29.4.0, SVG Export Plug-In . SVG Version: 2.1.0 Build 152)  -->
  <defs>
    <style>
      .st0 {
        fill: #fff;
      }
    </style>
  </defs>
  <g id="svg8" inkscape:version="0.92.0 r15299">
    <sodipodi:namedview id="base" bordercolor="#666666" borderopacity="1.0" fit-margin-bottom="0" fit-margin-left="0" fit-margin-right="0" fit-margin-top="0" inkscape:current-layer="layer1" inkscape:cx="149.00001" inkscape:cy="48.199994" inkscape:document-units="mm" inkscape:pageopacity="0.0" inkscape:pageshadow="2" inkscape:window-height="744" inkscape:window-maximized="1" inkscape:window-width="1280" inkscape:window-x="-4" inkscape:window-y="-4" inkscape:zoom="3.010067" pagecolor="#ffffff" showgrid="false" units="mm"/>
    <g id="layer1" inkscape:groupmode="layer" inkscape:label="Layer 1">
      <g id="g135">
        <path id="path12" class="st0" d="M36.74,18.44h-8.17c-2.47,0-4.43-1.95-4.43-4.42V5.84c0-2.4,1.95-4.42,4.43-4.42h8.17c2.4,0,4.43,1.95,4.43,4.42v8.17c0,2.47-1.95,4.42-4.43,4.42" inkscape:connector-curvature="0"/>
        <path id="path14" class="st0" d="M15.52,36.82H6.37c-2.77,0-4.95-2.25-4.95-4.95v-9.23c0-2.7,2.25-4.95,4.95-4.95h9.23c2.77,0,4.95,2.25,4.95,4.95v9.23c0,2.77-2.25,4.95-5.03,4.95" inkscape:connector-curvature="0"/>
        <path id="path16" class="st0" d="M14.69,55.94h-5.63c-1.65,0-3-1.35-3-3v-5.62c0-1.65,1.35-3,3-3h5.63c1.65,0,3,1.35,3,3v5.62c0,1.65-1.35,3-3,3" inkscape:connector-curvature="0"/>
        <path id="path18" class="st0" d="M29.77,73.72h-6.67c-1.95,0-3.6-1.58-3.6-3.6v-6.68c0-1.95,1.58-3.6,3.6-3.6h6.67c1.95,0,3.6,1.57,3.6,3.6v6.68c0,2.02-1.57,3.6-3.6,3.6" inkscape:connector-curvature="0"/>
        <path id="path20" class="st0" d="M54.14,21.82h-4.58c-1.35,0-2.47-1.12-2.47-2.47v-4.57c0-1.35,1.12-2.47,2.47-2.47h4.58c1.35,0,2.48,1.13,2.48,2.47v4.57c.08,1.35-1.05,2.47-2.48,2.47" inkscape:connector-curvature="0"/>
        <path id="path22" class="st0" d="M155.09,24.89c1.5,0,2.62-1.2,2.62-2.62,0-1.5-1.2-2.62-2.62-2.62-1.5,0-2.7,1.2-2.7,2.62s1.2,2.62,2.7,2.62Z" inkscape:connector-curvature="0"/>
        <path id="path24" class="st0" d="M58.12,53.24c-.38.6-1.05.9-1.8.9-.38,0-.9-.08-1.2-.3-.6-.38-.98-1.12-.98-1.87,0-.38.08-.75.3-1.05l6.15-9.68-6.15-9.67c-.23-.3-.3-.75-.3-1.05,0-.75.38-1.5,1.05-1.87.38-.23.75-.3,1.12-.3.75,0,1.43.3,1.88.9l5.03,7.95,5.1-7.95c.38-.6,1.12-.9,1.88-.9.38,0,.75.08,1.12.3.68.38,1.05,1.13,1.05,1.87,0,.38-.08.75-.3,1.05l-6.15,9.67,6.15,9.68c.22.3.3.67.3,1.05,0,.75-.38,1.58-.97,1.87-.38.23-.82.3-1.2.3-.75,0-1.35-.3-1.8-.9l-5.1-7.87-5.18,7.87Z" inkscape:connector-curvature="0"/>
        <path id="path26" class="st0" d="M80.09,31.27c2.32-2.1,5.47-3.37,8.85-3.37,7.43,0,13.28,5.93,13.28,13.27s-5.93,13.2-13.28,13.2c-3.37,0-6.52-1.27-8.85-3.38v11.33c0,1.13-1.05,2.1-2.17,2.1-1.05,0-2.17-.98-2.17-2.1V30.22c0-1.13,1.05-2.1,2.17-2.1,1.2,0,2.17.98,2.17,2.1v1.05ZM88.87,32.32c-4.95,0-8.85,3.9-8.85,8.85s3.9,8.85,8.85,8.85,8.85-3.9,8.85-8.85c.08-4.95-3.82-8.85-8.85-8.85Z" inkscape:connector-curvature="0"/>
        <path id="path28" class="st0" d="M139.79,38.77v13.27c0,1.13-1.05,2.1-2.17,2.1-1.2,0-2.17-.97-2.17-2.1v-21.82c0-1.13,1.05-2.1,2.17-2.1,1.05,0,2.1.9,2.17,2.03,1.8-1.35,4.12-2.17,6.6-2.17,1.35,0,2.4,1.05,2.4,2.17,0,1.2-1.05,2.25-2.4,2.25-3.38.08-6.6,1.27-6.6,6.38Z" inkscape:connector-curvature="0"/>
        <path id="path30" class="st0" d="M155.09,28.12c-1.2,0-2.17.98-2.17,2.1v21.9c0,1.12,1.05,2.1,2.17,2.1,1.05,0,2.18-.98,2.18-2.1v-21.9c0-1.13-1.05-2.1-2.17-2.1h0Z" inkscape:connector-curvature="0"/>
        <path id="path32" class="st0" d="M182.99,30.22c0-1.13,1.05-2.1,2.18-2.1,1.05,0,2.18.98,2.18,2.1v21.9c0,1.12-1.05,2.1-2.18,2.1-1.2,0-2.18-.98-2.18-2.1v-1.05c-2.4,2.1-5.47,3.38-8.85,3.38-7.42,0-13.27-5.93-13.27-13.28s5.93-13.2,13.27-13.2c3.37,0,6.45,1.27,8.85,3.37v-1.12ZM174.14,50.02c4.95,0,8.85-3.9,8.85-8.85s-3.9-8.85-8.85-8.85-8.85,3.9-8.85,8.85,3.9,8.85,8.85,8.85h0Z" inkscape:connector-curvature="0"/>
        <path id="path34" class="st0" d="M209.62,39.07c0-3.68-3.15-6.83-6.82-6.83s-6.82,1.43-6.82,6.6v13.28c0,1.12-1.05,2.1-2.18,2.1-1.2,0-2.18-.98-2.18-2.1v-21.9c0-1.13,1.05-2.1,2.18-2.1,1.05,0,2.1.9,2.18,2.03,1.87-1.43,4.2-2.17,6.75-2.17,5.93,0,11.25,4.65,11.25,10.5v13.65c0,1.12-1.05,2.1-2.18,2.1-1.2,0-2.18-.98-2.18-2.1v-13.05Z" inkscape:connector-curvature="0"/>
        <path id="path36" class="st0" d="M52.87,40.42c-.08-6.75-6.07-12.45-13.2-12.45s-13.27,5.92-13.27,13.2,5.93,13.28,13.27,13.28c3.53,0,6.82-1.35,9.23-3.75.45-.38.75-1.05.75-1.65,0-1.2-1.05-2.17-2.17-2.17-.67,0-1.27.38-1.73.9-1.5,1.57-3.68,2.32-6,2.32-4.43,0-8.02-3-8.77-7.2h20.03c.08,0,.15,0,.23-.08.9-.38,1.65-1.28,1.65-2.4h0ZM39.67,32.32c3.98,0,7.28,2.55,8.4,6.15h-16.88c1.13-3.6,4.43-6.15,8.48-6.15Z" inkscape:connector-curvature="0"/>
        <path id="path38" class="st0" d="M131.77,40.42c-.08-6.75-6.15-12.45-13.2-12.45-7.43,0-13.28,5.92-13.28,13.2s5.93,13.28,13.28,13.28c3.53,0,6.82-1.35,9.22-3.75.45-.38.75-1.05.75-1.65,0-1.2-1.05-2.17-2.17-2.17-.68,0-1.27.38-1.73.9-1.5,1.57-3.67,2.32-6,2.32-4.43,0-8.02-3-8.78-7.2h20.18c.9-.38,1.73-1.35,1.73-2.47h0ZM118.57,32.32c3.97,0,7.28,2.55,8.4,6.15h-16.87c1.12-3.6,4.43-6.15,8.48-6.15Z" inkscape:connector-curvature="0"/>
        <path id="path40" class="st0" d="M218.62,54.22c-.22,0-.37-.15-.37-.38v-3.68h-.83c-.22,0-.38-.15-.38-.38s.15-.38.38-.38h2.4c.22,0,.37.15.37.38s-.15.38-.37.38h-.83v3.68c0,.23-.15.38-.38.38Z" inkscape:connector-curvature="0"/>
        <path id="path42" class="st0" d="M222.89,54.22c-.22,0-.3-.15-.37-.3l-1.05-3v2.93c0,.23-.15.38-.38.38s-.37-.15-.37-.38v-3.9c0-.3.22-.53.52-.53.22,0,.45.15.52.38l1.05,3.08,1.05-3.08c.08-.23.3-.38.52-.38.3,0,.52.23.52.53v3.9c0,.23-.15.38-.37.38s-.38-.15-.38-.38v-2.93c-.15.45-.38,1.2-.6,1.8-.37,1.2-.45,1.2-.45,1.2.08.23-.08.3-.22.3h0Z" inkscape:connector-curvature="0"/>
      </g>
    </g>
  </g>
</svg>