<?xml version="1.0" encoding="UTF-8"?>
<svg xmlns="http://www.w3.org/2000/svg" version="1.1" xmlns:cc="http://creativecommons.org/ns#" xmlns:dc="http://purl.org/dc/elements/1.1/" xmlns:inkscape="http://www.inkscape.org/namespaces/inkscape" xmlns:rdf="http://www.w3.org/1999/02/22-rdf-syntax-ns#" xmlns:sodipodi="http://sodipodi.sourceforge.net/DTD/sodipodi-0.dtd" xmlns:svg="http://www.w3.org/2000/svg" viewBox="0 0 200.9 53.2">
  <!-- Generator: Adobe Illustrator 29.4.0, SVG Export Plug-In . SVG Version: 2.1.0 Build 152)  -->
  <defs>
    <style>
      .st0 {
        fill: #00a6ca;
      }
    </style>
  </defs>
  <g id="svg4578" inkscape:version="0.92.0 r15299">
    <sodipodi:namedview id="base" bordercolor="#666666" borderopacity="1.0" fit-margin-bottom="0" fit-margin-left="0" fit-margin-right="0" fit-margin-top="0" inkscape:current-layer="layer1" inkscape:cx="99.950436" inkscape:cy="26.100254" inkscape:document-units="mm" inkscape:pageopacity="0.0" inkscape:pageshadow="2" inkscape:window-height="744" inkscape:window-maximized="1" inkscape:window-width="1280" inkscape:window-x="-4" inkscape:window-y="-4" inkscape:zoom="4.487224" pagecolor="#ffffff" showgrid="false" units="px"/>
    <g id="layer1" inkscape:groupmode="layer" inkscape:label="Layer 1">
      <g id="g4547">
        <path id="path4449" class="st0" d="M36.93,33.11c-.46-.36-1-.64-1.64-.82-.64-.18-1.28-.27-1.82-.27-.46,0-.91.09-1.37.18-.46.09-.91.27-1.28.46s-.73.46-1.09.82-.55.73-.73,1.09c0-.64-.18-1.09-.55-1.46-.27-.36-.73-.64-1.18-.82-.46-.18-1-.27-1.55-.27s-1.09.09-1.73.18v2.37c.36,0,.73,0,.91.09.27.09.36.18.46.36.09.18.18.36.18.64v11.93h3.46v-8.84c0-.64.09-1.18.36-1.64.18-.46.46-.82.82-1.09.36-.27.82-.55,1.28-.64.46-.09,1-.27,1.46-.27.91,0,1.73.18,2.46.55h0l1.55-2.55Z" inkscape:connector-curvature="0"/>
        <path id="path4451" class="st0" d="M52.14,45.23c-.27-.09-.36-.27-.46-.46-.09-.18-.18-.46-.18-.73v-10.57c-1-.46-2-.82-3.1-1-1-.27-2.1-.36-3.19-.36-1.28,0-2.37.18-3.46.55-1,.36-1.91.91-2.73,1.64-.82.73-1.37,1.55-1.82,2.64-.46,1-.73,2.19-.73,3.46,0,1.09.09,2.1.46,3.01.27.91.73,1.73,1.28,2.46.55.73,1.28,1.28,2.19,1.64s1.91.55,3.01.55,2.19-.27,3.19-.91c1-.55,1.73-1.37,2.1-2.46,0,.82.09,1.46.36,1.91.27.46.55.82,1,1,.46.27.91.36,1.46.36s1.09,0,1.64-.18v-2.55c-.46.09-.82.09-1,0h0ZM48.13,39.94c0,1.46-.36,2.55-1.09,3.46-.64.91-1.64,1.37-2.91,1.37-1.46,0-2.46-.46-3.19-1.28s-1-1.91-1-3.37c0-.82.18-1.55.46-2.28.27-.64.55-1.28,1-1.73s.91-.82,1.55-1.09c.55-.27,1.28-.36,2-.36.46,0,1,0,1.55.09s1.09.27,1.64.46v4.74Z" inkscape:connector-curvature="0"/>
        <path id="path4453" class="st0" d="M68.63,33.93c-.46-.55-1.09-1-1.91-1.37-.73-.36-1.64-.55-2.73-.55-.55,0-1,0-1.55.09s-1,.27-1.46.46c-.46.18-.91.46-1.28.82s-.73.73-.91,1.28c0-.73-.18-1.28-.46-1.64-.27-.36-.64-.64-1.09-.82-.46-.09-1-.18-1.55-.18s-1.18.09-1.73.18v2.37c.36,0,.73,0,.91.09.27.09.36.18.46.36.09.18.18.36.18.64v11.93h3.46v-8.65c0-.64.09-1.18.27-1.64.18-.55.46-.91.82-1.28.36-.36.73-.64,1.18-.82.46-.18,1-.27,1.55-.27,1,0,1.91.36,2.55,1,.73.64,1,1.64,1,2.82v8.93h3.46v-8.93c0-.91-.09-1.82-.36-2.64.09-.91-.27-1.55-.82-2.19h0Z" inkscape:connector-curvature="0"/>
        <path id="path4455" class="st0" d="M84.11,39.67c-.55-.36-1.28-.55-2-.73-.73-.18-1.55-.27-2.37-.36-1.18-.18-2.1-.36-2.73-.55-.64-.27-.91-.64-.91-1.28,0-.36.09-.64.27-.91.18-.27.36-.46.73-.64.27-.18.64-.36,1-.46.36-.09.82-.18,1.18-.18s.82,0,1.18.09c.46.09.82.18,1.09.36.36.18.55.36.82.64.18.27.36.55.36.91h3.01c0-.73-.09-1.46-.46-2s-.82-1-1.37-1.46c-.64-.36-1.28-.73-2.1-.91-.82-.18-1.64-.27-2.55-.27-.82,0-1.64.09-2.46.27-.82.18-1.46.46-2.1.91-.64.36-1.09.91-1.46,1.46s-.55,1.28-.55,2.1c0,.91.27,1.55.64,2.1.46.55.91.91,1.55,1.18.64.27,1.37.46,2.19.64.82.09,1.55.27,2.37.36,1,.09,1.82.36,2.46.64.64.27.91.73.91,1.46,0,.46-.09.82-.36,1.18-.27.27-.55.55-.82.73-.36.18-.73.27-1.18.36-.46.09-.82.09-1.28.09s-.82-.09-1.28-.09c-.36-.09-.73-.27-1.09-.46s-.55-.46-.82-.73c-.18-.27-.36-.64-.36-1h-3.37c.09.91.27,1.73.73,2.37s.91,1.09,1.64,1.46c.64.36,1.37.64,2.19.82.82.18,1.64.27,2.46.27s1.64-.09,2.46-.27c.82-.18,1.55-.46,2.1-.91s1.09-.91,1.46-1.46c.36-.64.55-1.37.55-2.19,0-.91-.18-1.64-.55-2.19-.18-.64-.64-1-1.18-1.37h0Z" inkscape:connector-curvature="0"/>
        <path id="path4457" class="st0" d="M122.73,33.93c-.46-.55-1.09-1-1.91-1.37-.73-.36-1.64-.55-2.73-.55-.55,0-1,0-1.55.09s-1,.27-1.46.46c-.46.18-.91.46-1.28.82s-.73.73-.91,1.28c0-.73-.18-1.28-.46-1.64-.27-.36-.64-.64-1.09-.82-.46-.09-1-.18-1.55-.18s-1.18.09-1.64.18v2.37c.36,0,.73,0,.91.09.27.09.36.18.46.36.09.18.18.36.18.64v11.93h3.46v-8.65c0-.64.09-1.18.27-1.64.18-.55.46-.91.82-1.28s.73-.64,1.18-.82c.46-.18,1-.27,1.55-.27,1,0,1.91.36,2.55,1,.73.64,1,1.64,1,2.82v8.93h3.46v-8.93c0-.91-.09-1.82-.36-2.64,0-.91-.36-1.55-.91-2.19h0Z" inkscape:connector-curvature="0"/>
        <path id="path4459" class="st0" d="M128.84,25.64c-.55,0-1,.18-1.46.55-.46.36-.64.82-.64,1.55s.27,1.18.64,1.55c.46.36.91.55,1.46.46.55,0,1-.18,1.37-.55.46-.36.64-.82.64-1.55s-.18-1.18-.64-1.55c-.36-.36-.82-.46-1.37-.46Z" inkscape:connector-curvature="0"/>
        <rect id="rect4461" class="st0" x="127.11" y="32.38" width="3.46" height="15.3"/>
        <path id="path4463" class="st0" d="M146.69,34.02c-.73-.64-1.64-1.09-2.64-1.46s-2-.46-3.1-.46c-1,0-2,.18-2.91.46-.91.36-1.82.82-2.55,1.46s-1.37,1.46-1.82,2.46c-.46,1-.73,2.1-.73,3.46s.27,2.55.73,3.46c.46,1,1.09,1.82,1.82,2.55.73.64,1.64,1.18,2.55,1.46,1,.36,1.91.46,3.01.46,1,0,2-.18,3.01-.46s1.82-.82,2.55-1.46,1.37-1.46,1.82-2.55c.46-1,.73-2.19.73-3.46,0-1.37-.27-2.46-.73-3.46-.36-1-1-1.82-1.73-2.46ZM145.32,42.13c-.27.64-.64,1.09-1,1.55-.36.46-.91.73-1.46.91-.55.18-1.09.36-1.64.36s-1.18-.09-1.73-.27c-.55-.18-1.09-.55-1.46-.91-.46-.46-.82-.91-1.09-1.55-.27-.64-.36-1.37-.36-2.19s.09-1.46.36-2.1.55-1.09,1-1.46.91-.73,1.46-.91c.55-.18,1.09-.27,1.64-.36.55,0,1.18.09,1.73.27.55.18,1.09.46,1.55.91.46.36.82.91,1.09,1.55.27.64.46,1.37.46,2.19-.09.64-.27,1.37-.55,2h0Z" inkscape:connector-curvature="0"/>
        <path id="path4465" class="st0" d="M9.23,28.74v-3.28h16.49v3.28h-6.47v18.95h-3.64v-18.95h-6.38Z" inkscape:connector-curvature="0"/>
        <path id="path4467" class="st0" d="M88.67,40.22v-14.76h3.64v14.67c0,2.91,2.19,4.55,5.01,4.55s4.92-1.64,4.92-4.55v-14.67h3.64v14.76c0,4.92-3.92,7.74-8.56,7.74s-8.65-2.82-8.65-7.74h0Z" inkscape:connector-curvature="0"/>
        <path id="path4469" class="st0" d="M166.37,44.04v-2.46h0v-3.01c0-.91-.09-1.82-.36-2.64-.27-.82-.64-1.46-1.09-2.1-.46-.55-1.09-1-1.91-1.37-.73-.36-1.64-.55-2.73-.55-.55,0-1,0-1.55.09s-1,.27-1.46.46c-.46.18-.91.46-1.28.82s-.73.73-.91,1.28c0-.73-.18-1.28-.46-1.64-.27-.36-.64-.64-1.09-.82-.46-.09-1-.18-1.55-.18s-1.18.09-1.64.18v2.37c.36,0,.73,0,.91.09.27.09.36.18.46.36.09.18.18.36.18.64v11.93h3.46v-8.65c0-.64.09-1.18.27-1.64.18-.55.46-.91.82-1.28s.73-.64,1.18-.82c.46-.18,1-.27,1.55-.27,1,0,1.91.36,2.55,1,.73.64,1,1.64,1,2.82v5.19h0v.36c0,3.73,2.28,4.1,5.28,3.55v-2.19c-1.37.09-1.64-.36-1.64-1.55h0Z" inkscape:connector-curvature="0"/>
        <path id="path4471" class="st0" d="M175.38.5c-5.92,0-11.11,3.19-13.85,8.02-1,1.91-1.18,3.55-.36,4.92.91,1.64,3.01,1.82,4.1,1.82h2l-.73,2.28c-.46,1.37-.27,2.91.46,3.92.73,1,1.82,1.55,3.19,1.55.91,0,1.91-.18,2.82-.55-.27-.36-.46-.73-.64-1.18-.09-.36-.27-.73-.27-1.18-.55.27-1.18.36-1.82.36-.36,0-.91-.09-1.18-.55-.27-.36-.36-.91-.18-1.55l1-3.1h3.19l.82-2.64h-3.1l1.37-4.28h-2.73l-1.37,4.28h-2.91c-.91,0-1.46-.27-1.73-.73-.27-.55,0-1.64.73-2.91v-.09c2.46-3.55,6.47-5.92,11.11-5.92,7.38,0,13.39,6.01,13.39,13.39s-6.01,13.39-13.39,13.39c-6.56,0-12.02-4.74-13.21-10.93l-2.55.55c1.46,7.38,7.92,13.03,15.76,13.03,8.84,0,16.03-7.2,16.03-16.03.09-8.65-7.11-15.85-15.94-15.85h0Z" inkscape:connector-curvature="0"/>
        <path id="path4475" class="st0" d="M185.59,20.9c-.64,0-1.46-.09-2-.46-.18-.18-.46-.36-.55-.82h0c0-.18,0-.46.09-.73l2-6.1h-2.73l-1.73,5.28h0c-.46,1.37-1.91,2.46-3.19,2.46-.36,0-.82-.09-1-.46-.18-.27-.36-.64-.09-1.28l2-6.1h-2.73l-1.73,5.28c-.46,1.28-.27,2.64.46,3.64.73.91,1.73,1.46,3.1,1.46,1.28,0,2.64-.55,3.73-1.46.36.55.82.91,1.46,1.18.91.27,1.46.27,2.1.27.27,0,.64-.09.73-.09.09-.09.09-.18.18-.27.09-.18.18-.36.27-.55.09-.18.18-.36.27-.55.09-.18.18-.36.27-.55.09-.09.09-.27.18-.36-.27.18-.64.18-1.09.18h0Z" inkscape:connector-curvature="0"/>
        <path id="path4481" class="st0" d="M169.92,45.86c0-2.73,4.1-2.73,4.1,0s-4.1,2.73-4.1,0ZM173.65,45.86c0-2.37-3.37-2.37-3.37,0s3.37,2.37,3.37,0ZM172.83,46.77h0l-.36.09-.55-.73h-.46v.73h-.27v-2h.82c.36,0,.73.27.73.64,0,.27-.18.55-.46.55l.55.73ZM171.56,45.86h.46c.27,0,.46-.18.46-.36,0-.27-.18-.36-.46-.36h-.46v.73Z" inkscape:connector-curvature="0"/>
      </g>
    </g>
  </g>
</svg>