<?xml version="1.0" encoding="UTF-8"?>
<svg id="Layer_1" xmlns="http://www.w3.org/2000/svg" version="1.1" viewBox="0 0 1200 171">
  <!-- Generator: Adobe Illustrator 29.5.1, SVG Export Plug-In . SVG Version: 2.1.0 Build 141)  -->
  <defs>
    <style>
      .st0 {
        fill: #e31837;
      }

      .st1 {
        fill: #012169;
      }
    </style>
  </defs>
  <path class="st0" d="M1085.98,130.81c34.64-29.69,83.3-58.56,110.02-68.95-4.12-2.64-10.56-6.43-17.81-10.56-34.48,11.38-74.72,36.62-110.68,65.16,6.1,4.62,12.54,9.4,18.47,14.35h0Z"/>
  <path class="st1" d="M1070.14,50.14c-5.11-2.47-10.72-4.78-15.01-6.76-13.03,6.43-30.02,16.17-51.47,31.51,4.62,2.47,9.57,5.44,14.85,8.41,16.5-12.21,33.16-23.75,51.63-33.16Z"/>
  <path class="st0" d="M1100.99,35.96c-6.27-3.46-28.04-11.55-43.05-15.01-4.45,1.65-10.72,4.12-15.01,5.94,5.44,1.48,25.73,6.93,43.05,15.67,4.45-2.14,10.72-4.78,15.01-6.6Z"/>
  <path class="st1" d="M1027.25,33.81c-19.3,8.91-39.59,21.11-50.64,28.21,3.96,1.81,7.92,3.3,13.36,5.94,24.41-16.5,43.55-26.56,51.14-29.86-5.44-1.98-10.56-3.3-13.86-4.29h0Z"/>
  <path class="st0" d="M1115.5,30.84c4.45-1.48,9.57-2.8,14.02-4.12-12.87-5.44-29.03-11.22-43.55-14.85-2.31.66-9.24,2.47-14.02,3.96,4.95,1.48,21.28,5.28,43.55,15.01ZM1034.18,92.87c5.28,3.13,10.89,7.42,16.33,11.05,36.12-28.04,71.75-49.65,110.85-61.86-5.44-2.8-10.23-5.28-16.33-8.25-23.42,5.94-63.51,21.94-110.85,59.05Z"/>
  <path class="st1" d="M8.34,122.23h26.39c13.36,0,19.63-6.93,19.63-16.66,0-7.92-4.12-13.2-12.7-14.85,7.59-1.81,11.05-6.43,11.05-13.2,0-8.58-6.27-15.51-19.63-15.51H8.5v60.21h-.16ZM31.26,96.66c4.95,0,8.41,2.47,8.41,7.42,0,5.28-3.3,7.42-8.41,7.42h-8.58v-15.01h8.58v.16ZM29.62,72.58c4.95,0,8.41,2.14,8.41,7.09s-3.3,7.09-8.41,7.09h-6.93v-14.19h6.93ZM107.64,61.86h-14.85l-22.6,60.37h15.01l4.12-12.54h21.77l4.12,12.54h15.18l-22.76-60.37ZM100.22,76.37l7.09,22.27h-14.52l7.42-22.27ZM205.62,61.86h-13.69v40.41l-25.73-40.41h-15.34v60.37h13.69v-40.25l25.73,40.25h15.34v-60.37ZM268.8,122.23l-19.79-30.68v30.68h-14.68v-60.37h14.68v29.03l18.8-29.03h16.33l-19.79,29.03,21.61,31.34h-17.16ZM337.91,92.04c0,12.04,7.26,19.46,16.66,19.46s16.66-7.42,16.66-19.46-7.26-19.46-16.66-19.46-16.66,7.42-16.66,19.46ZM322.41,92.04c.16-17.65,12.54-31.51,32.17-31.51s32,13.86,32.17,31.51c-.16,17.65-12.54,31.51-32.17,31.51s-32-13.86-32.17-31.51ZM406.86,122.23h14.68v-23.75h19.13v-11.55h-19.13v-13.53h23.09l2.64-11.55h-40.41v60.37ZM515.73,61.86h-14.85l-22.6,60.37h15.01l4.12-12.54h21.77l4.12,12.54h15.18l-22.76-60.37ZM508.31,76.37l7.09,22.27h-14.52l7.42-22.27ZM625.59,61.86h-17.16l-15.67,32.66-15.67-32.66h-17.16v60.37h13.2v-40.41l19.46,40.41,19.46-40.41v40.41h13.69l-.16-60.37ZM654.13,122.23h41.24v-11.55h-26.56v-13.53h20.95v-11.22h-20.95v-12.54h24.25l2.64-11.55h-41.57v60.37ZM751.29,122.23h16l-15.01-25.57c8.25-2.31,12.21-8.08,12.21-16.5,0-10.89-6.6-18.14-21.44-18.14h-23.26v60.37h14.35v-23.75h3.96l13.2,23.59ZM740.23,73.07c6.1,0,9.24,2.64,9.24,7.75s-3.13,7.75-9.24,7.75h-6.27v-15.51h6.27ZM789.23,122.23h14.68v-60.21h-14.68v60.21ZM876.16,106.06c-5.61,3.96-10.56,5.28-15.67,5.28-11.22,0-19.13-7.75-19.13-19.3s7.75-19.3,18.64-19.3c4.95,0,9.9,1.32,15.34,5.28v-13.69c-4.95-2.8-10.72-3.96-17.16-3.96-19.96,0-32.5,13.86-32.66,31.51.16,17.81,12.37,31.51,32.66,31.51,6.76,0,12.54-1.15,17.81-3.96v-13.36h.17ZM929.93,61.86h-14.85l-22.6,60.37h15.01l4.12-12.54h21.77l4.12,12.54h15.18l-22.76-60.37ZM922.51,76.37l7.09,22.27h-14.52l7.42-22.27Z"/>
</svg>