<?xml version="1.0" encoding="UTF-8"?>
<svg id="Layer_1" xmlns="http://www.w3.org/2000/svg" version="1.1" viewBox="0 0 956.28 171">
  <!-- Generator: Adobe Illustrator 29.5.1, SVG Export Plug-In . SVG Version: 2.1.0 Build 141)  -->
  <defs>
    <style>
      .st0 {
        fill: #00aeef;
      }
    </style>
  </defs>
  <path class="st0" d="M260.04,133.55h-36.23c4.65-4.23,5.97-19.57,7.62-47.26l.42-6.39,1.74-36.23c0-7.22-.83-11.94-2.99-13.59h40.46c9.79,0,28.94.42,28.94,20.48,0,13.59-12.44,21.72-23.88,24.71,16.17,1.25,28.19,9.37,28.19,25.95.42,17.91-16.58,32.34-44.27,32.34M258.8,83.3h-7.22l-1.25,15.33-.83,19.15c0,.83,2.99,2.99,9.79,2.99,14.51,0,23.88-7.22,23.88-19.15.42-13.18-11.11-18.24-24.29-18.24M261.79,42.51c-2.15,0-4.65,0-7.22.42-1.25,7.22-1.74,14.01-2.15,22.14l-.42,5.97h2.57c13.18,0,25.12-4.72,25.12-16.58.42-6.8-5.56-11.94-17.91-11.94M389.46,134.54c-8.96,0-9.79-.42-16.58-24.71l-2.57-8.96c-4.23,2.15-11.94,2.99-23.88,2.99h-12.44l-2.15,4.65c-2.15,4.65-7.22,14.51-7.22,20.48,0,1.57,0,3.15.42,4.65h-24.71c6.8-6.8,16.17-23.46,28.52-49.75l7.22-15.33,13.59-31.92c0-2.15-.42-3.82-1.25-5.97h22.55l11.11,40.87,4.23,16.17c7.62,27.69,12.76,40.87,18.74,46.01l-15.75.83M357.05,54.53l-17.08,36.23h27.28l-10.19-36.23M487.39,137.93c-7.71,0-9.37-1.25-11.94-4.65l-29.35-40.05c-2.15-3.31-4.23-5.56-7.62-5.56h-.42l-.42,8.13-1.25,25.54c0,6.8.83,11.11,2.99,12.76h-28.19c4.23-3.31,5.56-15.33,8.13-47.26l.42-6.39,1.74-36.23c0-7.22-.83-11.94-2.99-13.59h37.89c12.76,0,29.35,2.15,29.35,22.14,0,16.58-11.11,25.54-24.71,29.85,1.83,1.9,3.48,3.89,5.14,5.97l20.89,27.69c13.18,17.5,14.01,18.24,18.74,20.48-6.05.83-12.11,1.25-18.24,1.25M449.91,43c-2.57,0-5.56,0-8.13.42-.83,4.23-1.25,11.94-2.15,24.29l-.42,7.22c1.25.42,3.31.42,4.65.42,12.76,0,21.72-8.13,21.72-19.57-.42-8.13-5.97-12.76-15.75-12.76M542.36,135.7c-26.86,0-42.12-22.14-42.12-46.43,0-33.99,18.74-60.94,54.06-60.94,11.11,0,16.17,2.15,25.54,2.15l-2.57,26.37c-5.14-9.37-13.59-15.33-24.71-15.33-22.14,0-31.09,23.88-31.09,44.27,0,22.14,12.76,34.49,28.94,34.49,8.96,0,17.08-2.15,30.26-11.53-5.56,16.17-17.91,26.86-38.3,26.86M724.68,134.37c-8.96,0-9.37-.42-16.58-24.71l-2.57-8.96c-4.23,2.15-11.94,2.99-23.88,2.99h-12.76l-2.15,4.65c-3.31,6.8-7.22,14.93-7.22,20.48,0,1.25.42,2.99.42,4.65h-73.21c4.23-4.65,5.56-19.98,7.71-47.26l.42-6.39,1.74-36.23c0-6.8-.83-11.53-2.57-13.59h28.52c-4.23,2.99-5.56,19.57-7.22,47.26l-.42,6.39-2.15,30.68c0,4.65,1.74,5.97,6.8,5.97,17.5,0,21.31-.42,29.35-5.56,5.14-8.96,10.19-19.98,15.75-31.51l7.22-15.33,13.59-31.92c0-2.15-.42-3.82-1.25-5.97h22.46l11.11,40.87,4.23,16.17c7.71,27.69,12.44,40.87,19.15,46.01-5.47.74-11.02,1.16-16.58,1.25M692.26,54.28l-16.58,36.23h26.86l-10.19-36.23M789.35,77.75l-7.22,13.59c-1.74,7.62-2.15,17.91-2.15,28.94,0,4.65.83,11.11,2.99,13.18h-28.19c5.14-4.65,6.8-33.25,6.8-42.62-3.82-12.76-8.96-25.54-16.58-40.87-5.14-9.37-10.61-18.24-14.51-19.98l18.24-.83c6.8,0,8.96.83,13.18,10.19l14.51,34.91,18.24-29.35c1.25-2.57,2.99-5.97,2.99-8.96,0-2.15-.42-5.14-1.25-5.97h27.69c-5.97,1.25-29.85,39.22-34.91,47.67M882.79,54.28c-4.23-7.62-13.59-13.59-23.88-13.59-8.96,0-16.58,3.31-16.58,12.76,0,8.13,9.79,13.18,19.98,19.98,11.11,6.8,22.55,15.33,22.55,30.26,0,19.15-18.74,31.51-40.87,31.51-8.96,0-18.24-1.74-28.94-5.56l1.74-25.54c5.14,10.19,14.51,18.24,28.52,18.24,10.61,0,19.15-5.14,19.15-14.51,0-7.62-6.39-12.76-14.51-17.5-17.08-10.19-27.69-18.24-27.69-33.25,0-22.14,18.24-29.35,37.89-29.35,11.11,0,18.24,2.15,25.12,2.15l-2.57,24.38h.09,0Z"/>
  <path class="st0" d="M199.1,44.25c-1.32-3.06-3.48-6.46-7.38-9.12-1.74-1.32-3.89-2.57-6.05-3.48-1.74-.49-3.48-.83-5.64-.83h-.49c-2.57,0-7.38.49-9.95,4.31-1.32,1.32-1.74,3.89-1.32,6.05.49,1.74,1.74,3.48,3.48,3.89.33.33.83.42,1.32.42,0,.49-.49,1.32-.49,1.32-1.32,1.32-3.48,3.48-9.95,3.48h-.49c-3.48-.49-6.05-1.32-9.95-5.23-2.15-2.57-3.48-7.38-3.48-14.68,0-3.89-.49-6.88-1.32-9.45-.49-1.74-2.15-3.48-3.48-4.31s-2.15-1.32-4.31-2.15l-7.38-.83c-2.57,0-4.31.49-5.23,1.74h-2.57c-1.32,0-3.06.49-4.31.49-2.57.49-4.31,1.74-6.05,3.06-.49.49-2.15,2.15-2.57,3.89,0,1.32.49,2.57.49,3.06l.49.49c.83-.83,2.57-1.32,4.72-1.32,3.06,0,7.38,1.32,8.21,3.48,2.15,3.48,1.32,6.05,1.32,9.12-1.32,8.21-4.31,12.11-10.78,13.02-1.32.49-2.57.49-3.48.49-4.72,0-8.21-1.32-9.95-4.31v-.83s.49,0,.83-.49c1.74-.83,3.06-2.15,3.48-3.89.49-2.15,0-4.31-1.32-6.05-2.57-2.57-6.05-4.31-9.95-4.31-2.57,0-4.31.49-6.05.83-5.23,1.32-9.95,5.64-13.43,12.52-2.57,5.23-4.31,11.28-4.72,18.16s-.49,12.52,0,17.74c.49,8.62,2.15,13.85,4.31,19.4,2.15,5.56,4.72,10.78,7.8,15.59.83,1.32,1.32,2.57,2.15,3.48l.49-.49c.49-.49.83-.83,1.32-1.74,1.74-1.32,4.72-5.64,5.64-6.88s2.15-3.48,3.06-5.64l.49-.83.83.49c.83.83,1.32,2.15,1.32,3.48s-.49,2.57-1.32,5.23c-.83,3.06-2.57,6.46-4.31,9.95.49.49.49,1.32,0,1.32-1.32,2.15-1.32,3.06-1.32,3.89h.49c.49,0,2.15-.49,3.48-1.74,1.32-.83,4.72-3.89,9.12-9.95,3.48-4.31,5.64-9.12,8.21-14.26l.49-.83.83.49c.49.49.83.49,1.32.83.49.83.49,2.15.49,3.48-.49,3.48-2.57,8.21-3.89,11.69-2.57,6.05-7.38,12.52-10.78,17.32-.16.58-.67,1.08-1.32,1.32.49.49.83.83,1.74,1.32l1.32,1.32c4.56,3.82,9.45,7.13,14.68,9.95,4.31,2.57,13.02,6.88,18.99,8.62,6.05-1.32,14.68-6.05,18.99-8.62,5.23-2.82,10.12-6.14,14.68-9.95l1.32-1.32c.83-.49,1.32-1.32,1.74-1.32.49-.83.49-1.32.49-1.74l-.49-.49c-3.48-4.31-8.21-11.28-10.78-17.32-1.32-3.48-3.48-8.21-3.89-11.69-.49-1.32,0-2.57.49-3.48l.83-.83c.49-.49,1.32-.49,1.32-.49l.49.83c2.57,5.23,5.23,9.95,8.21,14.26,4.31,6.05,7.8,9.12,9.12,9.95,1.32,1.32,2.57,1.74,3.48,1.74h.49c.49-.49,0-1.32-1.32-3.48-.49-.49-.49-.83-.49-1.32-1.74-3.48-3.48-6.88-4.31-9.95-.83-2.57-1.32-4.31-1.32-5.23,0-1.32.49-2.57,1.32-3.48l.83-.49.49.83c.83,2.15,2.57,4.72,3.48,6.05s4.31,5.23,5.23,6.46c.83.83,1.32,1.32,1.32,1.74l.49.49c.49-.49.83-1.32,1.74-3.06l.49-.49c2.57-4.31,5.23-9.95,7.38-15.59,2.15-5.23,3.48-10.78,4.31-19.4.49-5.23.83-10.78,0-17.74.49-6.46-1.32-13.02-3.48-17.74h-.33l-.25-.25.03.03Z"/>
</svg>