<?xml version="1.0" encoding="UTF-8"?>
<svg id="Layer_1" xmlns="http://www.w3.org/2000/svg" version="1.1" viewBox="0 0 301.54 171">
  <!-- Generator: Adobe Illustrator 29.5.1, SVG Export Plug-In . SVG Version: 2.1.0 Build 141)  -->
  <defs>
    <style>
      .st0 {
        fill: #1c252c;
      }

      .st1 {
        fill: #ffed31;
      }
    </style>
  </defs>
  <path class="st0" d="M3.02,1.12v73.82h38.65c15.21,0,29.27-5.34,29.27-21.02,0-10.6-7.64-15.44-16.04-17.98,5.12-2.05,10.92-6.37,10.92-15.41,0-11.57-11.48-19.41-26.94-19.41H3.02ZM26.7,18.31h8.71c3.54,0,6.25,2.78,6.25,5.59,0,2.62-2.81,5.42-6.25,5.42h-8.7v-11.01ZM26.7,44.64h11.49c4.01,0,7.38,3.05,7.38,6.53,0,3.7-3.15,6.77-8.07,6.77h-10.79v-13.3ZM22.18,82.99v73.82h38.65c15.21,0,29.27-5.34,29.27-21.02,0-10.6-7.64-15.44-16.04-17.98,5.12-2.05,10.93-6.37,10.93-15.41,0-11.57-11.48-19.41-26.94-19.41H22.18ZM45.85,100.18h8.71c3.54,0,6.25,2.78,6.25,5.59,0,2.62-2.81,5.42-6.25,5.42h-8.7v-11.01ZM45.85,126.52h11.49c4.01,0,7.38,3.05,7.38,6.53,0,3.7-3.15,6.77-8.07,6.77h-10.79v-13.3ZM72.81,74.93V1.11h59.54v17.83h-35.94v9.68h29.18v16.71h-29.18v11.84h35.94v17.76h-59.54ZM164.61,77.04c16.76,0,30.17-9.56,30.17-25.05,0-25-32.53-21.16-32.53-28.94,0-3.01,3.16-4.6,6.41-4.6,5.59,0,9.63,3.68,9.63,3.68l13.99-13.32c-5.6-5.33-14.44-9.8-26.34-9.8-17.88,0-29.58,10.61-29.58,23.42,0,25.32,32.06,21.65,32.06,29.59,0,2.79-2.68,5.59-7.54,5.59-5.52,0-9.89-3.33-13.29-6.16l-14.08,13.42c5.67,5.52,14.77,12.18,31.11,12.18h0ZM212.99,74.93V18.87h-19.5V1.11h62.68v17.76h-19.5v56.06h-23.68ZM90.91,82.94h23.61v44.22c0,4.49,4.47,8.63,9.13,8.63,4.4,0,8.84-3.74,8.84-8.86v-43.99h23.54v43.69c0,17.33-14.39,31.16-33,31.16s-32.11-15.05-32.11-32.11v-42.74ZM185.14,156.76v-26.38l-27.75-47.44h23.89l15.7,25.42,15.76-25.42h23.94l-27.86,47.71v26.11h-23.68Z"/>
  <path class="st1" d="M236.67,123.34l-13.93,13.93v18.8l13.93,13.93h58.92v-46.66h-58.92Z"/>
  <path class="st0" d="M234.39,146.66c0,1.73-1.4,3.13-3.13,3.13s-3.13-1.4-3.13-3.13,1.4-3.13,3.13-3.13,3.13,1.4,3.13,3.13h0Z"/>
</svg>