<?xml version="1.0" encoding="UTF-8"?>
<svg id="Layer_1" xmlns="http://www.w3.org/2000/svg" version="1.1" viewBox="0 0 1200 171">
  <!-- Generator: Adobe Illustrator 29.5.1, SVG Export Plug-In . SVG Version: 2.1.0 Build 141)  -->
  <defs>
    <style>
      .st0 {
        fill: #00965e;
      }
    </style>
  </defs>
  <path class="st0" d="M293.88,163.7c14.12,0,27.76-2.71,38.96-6.71l-3.36-25.98c-7.85,3.57-20.13,6.28-29.33,6.28-30.41,0-44.05-18.35-44.05-51.25,0-29.33,13.85-50.54,42.05-50.54,10.28,0,20.56,1.57,30.41,4.49l3.14-26.41c-9.85-2.71-21.27-4-31.98-4-50.54,0-75.6,33.55-75.6,81.44-.05,37.56,16.94,72.68,69.76,72.68M386.25,50.49h-28.63v111.21h28.63V50.49ZM389.17,24.46c0-9.25-7.74-16.56-17.21-16.56s-16.99,7.52-16.99,16.56,7.52,16.78,16.99,16.78c9.42-.05,17.21-7.58,17.21-16.78ZM457.79,163.91c7.85,0,16.13-1.14,23.27-2.92v-23.05c-4,1.14-9.15,1.79-13.85,1.79-9.85,0-13.2-4-13.2-18.35v-48.76h27.06v-22.13h-27.06V8.6l-28.63,7.63v34.26h-18.99v22.13h19.27v56.39c-.05,25.92,7.52,34.9,32.14,34.9M536.26,50.49h-28.63v111.21h28.63V50.49ZM539.13,24.46c0-9.25-7.74-16.56-17.21-16.56s-16.99,7.52-16.99,16.56,7.52,16.78,16.99,16.78c9.47-.05,17.21-7.58,17.21-16.78ZM561.75,161.64h80.09v-26.19h-19.48c-8.28,0-20.56,0-25.27.22l43.83-64.89v-20.29h-77.87v25.49h19.7c10.71,0,19.48-.22,23.7-.49l-44.75,65.81v20.35M711.22,69.05c12.07,0,19.7,8.28,19.27,22.13h-40.97c1.57-13.42,9.85-22.13,21.7-22.13M758.9,97.68c0-27.49-14.34-49.68-46.76-49.68s-52.11,25.06-52.11,59.04c0,39.18,19.7,56.82,55.04,56.82,13.85,0,27.98-2.49,39.83-7.14l-2.71-22.13c-9.63,4.49-21.48,6.93-32.42,6.93-20.56,0-30.9-10.07-30.68-30.9h68.89c.65-4.65.92-9.15.92-12.93h0ZM851.05,161.64h28.41v-78.09c0-19.48-8.06-35.55-33.12-35.55-18.13,0-31.12,9.15-37.83,22.35l-.22-.22c1.14-5.84,1.57-14.56,1.57-19.7h-27.06v111.21h28.63v-53.68c0-19.48,11.42-36.04,25.92-36.04,10.5,0,13.64,6.93,13.64,18.56v71.16M929.79,163.91c30.41,0,49.68-14.77,49.68-36.69,0-36.04-45.62-27.98-45.62-46.11,0-6.93,5.36-11.42,16.56-11.42,6.93,0,14.34,1.14,20.56,2.92l.92-22.62c-6.71-1.14-13.85-2-20.35-2-31.33,0-47.19,16.13-47.19,35.55,0,37.83,44.97,26.63,44.97,46.32,0,7.36-7.14,11.85-18.13,11.85-8.5,0-16.99-1.57-23.92-3.36l-.65,23.49c7.04,1.14,15.1,2.06,23.16,2.06M164.72,163.8c4.9-4.9,5-12.95,0-17.91l-29.27-29.27,20.33.2c7.95.2,12.55-5.36,12.55-12.35s-5.6-12.75-12.55-12.75h-25.29c-5.56,0-10.06,3.44-11.79,7.95-3.18,8.28-9.7,14.83-18.11,18.11-4.54,1.79-7.95,6.22-7.95,11.79v25.29c0,6.95,5.56,12.55,12.75,12.55s12.55-4.6,12.35-12.55l-.2-20.33,29.27,29.27c4.97,4.97,13.01,4.87,17.91,0M164.72,14.25c-4.87-4.9-12.95-5-17.91,0l-29.27,29.27.2-20.33c.2-7.95-5.4-12.55-12.35-12.55s-12.75,5.6-12.75,12.55v25.29c0,5.56,3.44,10.06,7.95,11.79,8.28,3.18,14.8,9.7,18.11,18.11,1.79,4.54,6.22,7.95,11.79,7.95h25.29c6.95,0,12.55-5.56,12.55-12.75s-4.6-12.55-12.55-12.35l-20.33.2,29.27-29.27c4.97-4.97,4.87-13.04,0-17.91M15.17,14.25c-4.9,4.9-4.97,12.95,0,17.91l29.27,29.27-20.33-.2c-7.95-.2-12.55,5.36-12.55,12.35s5.6,12.75,12.55,12.75h25.29c5.56,0,10.06-3.44,11.79-7.95,3.18-8.28,9.7-14.83,18.11-18.11,4.54-1.79,7.95-6.22,7.95-11.79v-25.29c0-6.95-5.56-12.55-12.75-12.55s-12.55,4.6-12.35,12.55l.2,20.33-29.27-29.27c-4.97-5-13.04-4.9-17.91,0M15.17,163.8c4.87,4.9,12.95,5,17.91,0l29.27-29.27-.2,20.33c-.2,7.95,5.36,12.55,12.35,12.55s12.75-5.6,12.75-12.55v-25.29c0-5.56-3.44-10.06-7.95-11.79-8.28-3.18-14.8-9.7-18.11-18.11-1.79-4.54-6.22-7.95-11.79-7.95h-25.29c-6.95,0-12.55,5.56-12.55,12.75s4.6,12.55,12.55,12.35l20.33-.2-29.27,29.27c-5,4.97-4.9,13.01,0,17.91"/>
  <g>
    <path d="M1002.54,124.41c-2.94,4.38-5.16,10.44-5.16,18.73s2.28,14.15,5.16,18.58h-4.1c-2.66-3.68-5.59-9.69-5.59-18.6.03-8.99,2.93-15,5.59-18.71h4.1Z"/>
    <path d="M1005.43,148.57c0-3.69,2.15-6.24,5.59-7.75v-.12c-3.11-1.52-4.54-4.01-4.54-6.63,0-4.91,4.31-8.2,9.98-8.2,6.45,0,9.36,3.86,9.36,7.53,0,2.56-1.33,5.19-4.61,6.78v.13c3.27,1.28,5.73,3.82,5.73,7.57,0,5.34-4.51,8.92-10.91,8.92-6.98,0-10.6-4.02-10.6-8.21ZM1021.18,148.33c0-3.05-2.22-4.71-5.55-5.62-2.83.79-4.42,2.75-4.42,5.21-.07,2.55,1.86,4.87,5.03,4.87,2.99,0,4.94-1.9,4.94-4.46ZM1011.85,133.81c-.01,2.46,2,3.91,4.88,4.73,2.04-.63,3.71-2.29,3.71-4.54,0-2.08-1.23-4.23-4.29-4.23-2.82,0-4.31,1.87-4.31,4.04Z"/>
    <path d="M1039.35,131.49h-.09l-5.46,2.75-.99-4.27,7.3-3.59h4.72v29.9h-5.48v-24.79Z"/>
    <path d="M1064.01,131.49h-.09l-5.46,2.75-.99-4.27,7.3-3.59h4.72v29.9h-5.48v-24.79Z"/>
    <path d="M1098,130.39c-.83-.03-1.74,0-2.88.14-6.28.73-9.29,4.56-10.03,8.71h.12c1.46-1.68,3.72-2.87,6.74-2.87,5.16,0,9.16,3.68,9.16,9.72,0,5.73-4.19,10.68-10.55,10.68-7.25,0-11.28-5.51-11.28-12.9,0-5.75,2.08-10.42,5.19-13.4,2.75-2.6,6.37-4.08,10.64-4.42,1.25-.14,2.17-.14,2.87-.12l.02,4.45ZM1095.36,146.41c0-3.45-1.91-5.92-5.21-5.92-2.13,0-4.03,1.3-4.89,3.1-.22.43-.36.99-.36,1.78.1,3.95,1.96,7.18,5.62,7.18,2.93,0,4.84-2.54,4.84-6.14Z"/>
    <path d="M1103.76,161.72c2.88-4.39,5.15-10.48,5.15-18.69s-2.25-14.2-5.15-18.62h4.1c2.66,3.65,5.59,9.63,5.59,18.64-.03,8.97-2.93,14.92-5.59,18.67h-4.1Z"/>
  </g>
</svg>