<?xml version="1.0" encoding="UTF-8"?>
<svg id="Layer_1" xmlns="http://www.w3.org/2000/svg" version="1.1" viewBox="0 0 624.16 186.59">
  <!-- Generator: Adobe Illustrator 29.5.1, SVG Export Plug-In . SVG Version: 2.1.0 Build 141)  -->
  <defs>
    <style>
      .st0 {
        fill: #93c02d;
      }

      .st1 {
        fill: #6e922c;
      }

      .st2 {
        fill: #46681c;
      }
    </style>
  </defs>
  <g>
    <path class="st0" d="M74.78,7.22L4.71,50.14l23.21,14.22,46.86-28.69,46.86,28.69,23.21-14.22L74.78,7.22ZM44.3,74.39l30.48,18.67,30.48-18.67-30.48-18.67-30.48,18.67h0Z"/>
    <path class="st2" d="M27.92,64.36l-23.22-14.22v85.83l70.07,42.92v-28.44l-46.86-28.7v-57.4h0ZM44.3,74.39v37.33h0l30.48,18.67v-37.34s-30.48-18.67-30.48-18.67Z"/>
    <path class="st1" d="M121.64,64.36v57.39l-46.86,28.7v28.44l70.07-42.92V50.14l-23.21,14.22h0ZM105.26,74.39l-30.48,18.67v37.34l30.48-18.67v-37.33Z"/>
  </g>
  <g>
    <path d="M210.19,107.93c-2.76,1.43-11.05,2.69-16.89,2.69-15.81,0-24.41-8.08-24.41-26.05,0-16.79,7.37-28.42,25.79-28.42,4.6,0,11.82,1.27,14.81,2.3v14.17h-7.14l-.46-4.99c-.46-4.83-2.99-6.41-7.76-6.41-7.44,0-14.97,3.8-14.97,22.57,0,12.59,2.61,21.78,14.58,21.78,5.53,0,9.06-1.51,9.06-7.68v-4.28h7.37v14.33h0Z"/>
    <path d="M235.25,69.61c12.9,0,18.42,8.71,18.42,20.43s-5.53,20.43-18.42,20.43-18.42-8.71-18.42-20.43,5.53-20.43,18.42-20.43M235.25,105.87c6.29,0,8.6-5.07,8.6-15.84s-2.3-15.83-8.6-15.83-8.6,5.07-8.6,15.83,2.3,15.84,8.6,15.84"/>
    <path d="M255.88,70.87c4.38,0,11.21-.47,14.97-.95v8.79h.15c2.61-6.41,6.98-9.11,13.2-9.11,2.23,0,4.38.32,6.14.95v11.4h-7.37c-.08-3.96-.92-6.17-3.91-6.17-3.53,0-7.06,4.91-7.06,11.56v12.99c0,3.64.38,4.99,4.3,4.99h4.07v3.88h-24.49v-3.88h2.46c3.92,0,4.3-1.35,4.3-4.99v-19.32c0-5.3-.38-6.02-3.45-6.02h-3.3v-4.12h0Z"/>
    <path d="M294.64,70.87c3.92,0,10.74-.47,14.51-.95v8.79h.15c2.61-6.41,6.98-9.11,13.2-9.11,7.52,0,13.36,3.49,13.36,12.03v18.69c0,3.64.38,4.99,4.3,4.99h1.99v3.88h-21.03v-3.88h1.08c3.92,0,4.3-1.35,4.3-4.99v-16.39c0-5.62-2.61-8.16-6.76-8.16-5.6,0-9.44,4.12-9.44,11.56v12.99c0,3.64.39,4.99,4.3,4.99h1.07v3.88h-21.49v-3.88h2.46c3.91,0,4.3-1.35,4.3-4.99v-19.32c0-5.3-.38-6.02-3.45-6.02h-2.84v-4.12h0Z"/>
    <path d="M354.23,90.67c0,5.39.08,15.2,9.52,15.2,5.6,0,7.91-3.09,7.98-9.03h7.83c-.08,6.81-3.91,13.62-16.73,13.62s-18.42-8.71-18.42-20.43,5.53-20.42,18.42-20.42,17.5,5.94,17.5,19.24v1.82h-26.1,0ZM370.96,86.08c0-6.49-1.61-12.11-8.21-12.11s-8.52,5.46-8.52,12.11h16.73Z"/>
    <path d="M383.58,70.87c4.37,0,11.21-.47,14.97-.95v8.79h.15c2.61-6.41,6.99-9.11,13.2-9.11,2.23,0,4.38.32,6.15.95v11.4h-7.37c-.08-3.96-.92-6.17-3.91-6.17-3.53,0-7.06,4.91-7.06,11.56v12.99c0,3.64.38,4.99,4.3,4.99h4.07v3.88h-24.49v-3.88h2.46c3.92,0,4.3-1.35,4.3-4.99v-19.32c0-5.3-.39-6.02-3.45-6.02h-3.3v-4.12h0Z"/>
    <path d="M423.27,96.84h6.44c0,5.62,1.46,9.26,6.76,9.26,4.91,0,8.14-2.14,8.14-5.78,0-2.93-1.07-4.67-8.14-6.89-8.9-2.77-13.2-6.1-13.2-12.27,0-7.21,6.3-11.56,15.35-11.56,5.83,0,10.98,1.11,13.2,2.14v10.85h-6.45c0-6.1-1.46-8.63-6.99-8.63-3.53,0-5.75,1.5-5.75,4.67s1.99,5.15,5.52,6.34l6.29,2.14c6.6,2.21,9.52,4.51,9.52,10.53,0,9.26-8.52,12.82-16.58,12.82-6.29,0-11.9-1.58-14.12-2.54v-11.08h0Z"/>
    <path d="M457.46,70.87c7.14-.87,8.83-3.17,9.44-11.16h6.68v11.16h12.28v4.59h-12.28v25.18c0,3.4,1.23,4.91,3.99,4.91s3.99-1.51,3.99-4.91v-4.04h6.45v1.74c0,8.47-4.3,12.28-11.74,12.28s-12.05-2.61-12.05-12.43v-22.72h-6.76v-4.59h0Z"/>
    <path d="M510.8,69.61c12.89,0,18.42,8.71,18.42,20.43s-5.53,20.43-18.42,20.43-18.42-8.71-18.42-20.43,5.52-20.43,18.42-20.43M510.8,105.87c6.29,0,8.6-5.07,8.6-15.84s-2.3-15.83-8.6-15.83-8.6,5.07-8.6,15.83,2.3,15.84,8.6,15.84"/>
    <path d="M531.69,70.87c3.92,0,10.75-.47,14.51-.95v8.79h.16c2.61-6.41,6.98-9.11,13.2-9.11,7.52,0,13.36,3.49,13.36,12.03v18.69c0,3.64.38,4.99,4.3,4.99h1.99v3.88h-21.03v-3.88h1.07c3.92,0,4.3-1.35,4.3-4.99v-16.39c0-5.62-2.61-8.16-6.75-8.16-5.6,0-9.44,4.12-9.44,11.56v12.99c0,3.64.39,4.99,4.3,4.99h1.07v3.88h-21.49v-3.88h2.46c3.91,0,4.3-1.35,4.3-4.99v-19.32c0-5.3-.39-6.02-3.46-6.02h-2.84v-4.12h0Z"/>
    <path d="M591.28,90.67c0,5.39.08,15.2,9.52,15.2,5.6,0,7.91-3.09,7.98-9.03h7.83c-.08,6.81-3.92,13.62-16.73,13.62s-18.42-8.71-18.42-20.43,5.53-20.42,18.42-20.42,17.5,5.94,17.5,19.24v1.82h-26.1,0ZM608.02,86.08c0-6.49-1.61-12.11-8.21-12.11s-8.52,5.46-8.52,12.11h16.73,0Z"/>
  </g>
  <g>
    <path d="M185.37,129.26c-1.4-.83-2.97-1.24-4.59-1.24-5.13,0-8.55,3.7-8.55,8.71s3.76,8.71,8.39,8.71c1.6,0,3.73-.41,4.85-1.08l.19,3.09c-1.69.7-3.76.8-5.07.8-7.05,0-11.74-4.53-11.74-11.61s4.98-11.42,11.77-11.42c1.72,0,3.41.25,5.01.96l-.26,3.09h0Z"/>
    <path d="M195.13,131.21c4.94,0,8.26,3.57,8.26,8.52,0,4.65-3.38,8.51-8.26,8.51s-8.29-3.86-8.29-8.51c0-4.94,3.32-8.52,8.29-8.52ZM195.13,145.82c3.51,0,5.07-3.19,5.07-6.09,0-3.09-1.88-6.09-5.07-6.09s-5.1,3-5.1,6.09c0,2.9,1.56,6.09,5.1,6.09Z"/>
    <path d="M206.1,131.59h2.81v2.36h.06c1.15-1.88,2.77-2.74,5.17-2.74,1.88,0,3.76.96,4.62,3.16,1.12-2.33,3.57-3.16,5.04-3.16,4.15,0,5.65,2.68,5.65,6.22v10.43h-3v-9.69c0-2.01-.48-4.53-2.9-4.53-3.06,0-4.27,3-4.27,6.03v8.2h-3v-9.69c0-2.01-.48-4.53-2.9-4.53-3.06,0-4.27,3-4.27,6.03v8.2h-3v-16.26h0Z"/>
    <path d="M233.2,131.59h2.81v2.36h.06c1.15-1.88,2.77-2.74,5.17-2.74,1.88,0,3.76.96,4.62,3.16,1.12-2.33,3.57-3.16,5.04-3.16,4.15,0,5.65,2.68,5.65,6.22v10.43h-3v-9.69c0-2.01-.48-4.53-2.9-4.53-3.06,0-4.27,3-4.27,6.03v8.2h-3v-9.69c0-2.01-.48-4.53-2.9-4.53-3.06,0-4.27,3-4.27,6.03v8.2h-3v-16.26h0Z"/>
    <path d="M274.72,147.86h-2.9v-2.58h-.06c-.89,1.85-3.06,2.97-5.33,2.97-4.21,0-6.09-2.62-6.09-6.98v-9.66h3v8.42c0,3.79.83,5.65,3.44,5.8,3.41,0,4.94-2.74,4.94-6.7v-7.53h3v16.26h0Z"/>
    <path d="M278.55,131.59h2.9v2.58h.06c.89-1.85,3.06-2.97,5.33-2.97,4.21,0,6.09,2.62,6.09,6.98v9.66h-3v-8.42c0-3.79-.83-5.65-3.44-5.8-3.41,0-4.94,2.74-4.94,6.7v7.53h-3v-16.26h0Z"/>
    <path d="M300.32,127.96h-3.38v-3.38h3.38v3.38ZM297.14,131.59h3v16.26h-3v-16.26Z"/>
    <path d="M312.98,134.01h-4.31v8.9c0,1.88,1.15,2.9,2.52,2.9.92,0,1.6-.29,2.04-.57v2.55c-.67.19-1.6.45-2.55.45-3.09,0-5.01-1.47-5.01-4.72v-9.5h-3.67v-2.42h3.67v-3.76l3-.96v4.72h4.31v2.42h0Z"/>
    <path d="M314.29,152.26c.38.13.89.26,1.4.26,2.68,0,3.57-3.7,3.57-4.02,0-.35-.38-1.18-.57-1.72l-5.52-15.18h3.28l4.37,13.46h.06l4.46-13.46h3.03l-6,16.62c-1.12,3.13-2.3,6.73-6.25,6.73-.96,0-1.5-.13-2.04-.22l.19-2.46h0Z"/>
    <path d="M337.89,125.6h11.83v2.81h-8.64v6.51h8.26v2.81h-8.26v10.14h-3.19v-22.26h0Z"/>
    <path d="M364.93,147.19c-1.15.41-2.45,1.05-5.14,1.05-5.77,0-8.42-3.51-8.42-8.8,0-4.82,3.03-8.23,7.62-8.23,5.42,0,7.18,3.96,7.18,9.18h-11.61c0,3.22,2.52,5.42,5.36,5.42,1.98,0,4.27-1.02,5.01-1.63v3h0ZM362.98,138.16c0-2.49-1.47-4.53-4.05-4.53-2.93,0-4.15,2.42-4.37,4.53h8.42,0Z"/>
    <path d="M380.46,145.56h-.06c-.8,1.21-2.65,2.68-5.55,2.68-4.91,0-6.98-4.37-6.98-8.8s2.3-8.23,7.02-8.23c2.84,0,4.46,1.12,5.39,2.62h.06v-9.89h3v23.92h-2.87v-2.3h0ZM375.55,145.82c3.38,0,4.78-3.35,4.78-6.06,0-3.03-1.56-6.12-4.82-6.12s-4.53,3.06-4.46,6.03c-.06,2.55,1.27,6.15,4.5,6.15h0Z"/>
    <path d="M399.62,147.19c-1.15.41-2.45,1.05-5.14,1.05-5.77,0-8.42-3.51-8.42-8.8,0-4.82,3.03-8.23,7.62-8.23,5.42,0,7.18,3.96,7.18,9.18h-11.61c0,3.22,2.52,5.42,5.36,5.42,1.98,0,4.27-1.02,5.01-1.63v3h0ZM397.68,138.16c0-2.49-1.47-4.53-4.05-4.53-2.93,0-4.15,2.42-4.37,4.53h8.42,0Z"/>
    <path d="M403.64,131.59h2.81v2.52h.06c.8-1.69,2.52-2.9,4.24-2.9.89,0,1.34.1,1.98.22v2.68c-.54-.22-1.15-.29-1.66-.29-2.68,0-4.43,2.55-4.43,6.63v7.4h-3v-16.26h0Z"/>
    <path d="M415.56,132.74c1.5-.89,3.29-1.53,5.36-1.53,4.65,0,6.54,2.3,6.54,6.73v6.73c0,1.85.06,2.71.13,3.19h-2.81v-2.1h-.06c-.7.99-2.3,2.49-5.04,2.49-3.51,0-5.96-1.53-5.96-5.07,0-4.08,4.46-5.36,7.56-5.36,1.18,0,2.01,0,3.19.06,0-2.81-1.02-4.24-4.02-4.24-1.69,0-3.51.64-4.72,1.66l-.16-2.55h0ZM424.46,140.11c-.64,0-1.27-.06-1.91-.06-1.63,0-5.64.26-5.64,3.13,0,1.72,1.66,2.65,3.03,2.65,2.97,0,4.53-1.85,4.53-4.27v-1.43h0Z"/>
    <path d="M431.67,123.94h3v23.92h-3v-23.92Z"/>
    <path d="M462.15,129.26c-1.4-.83-2.97-1.24-4.59-1.24-5.13,0-8.55,3.7-8.55,8.71s3.76,8.71,8.39,8.71c1.6,0,3.73-.41,4.85-1.08l.19,3.09c-1.69.7-3.76.8-5.07.8-7.05,0-11.73-4.53-11.73-11.61s4.98-11.42,11.77-11.42c1.72,0,3.41.25,5.01.96l-.26,3.09h0Z"/>
    <path d="M464.73,131.59h2.81v2.52h.06c.8-1.69,2.52-2.9,4.24-2.9.89,0,1.34.1,1.98.22v2.68c-.54-.22-1.15-.29-1.66-.29-2.68,0-4.43,2.55-4.43,6.63v7.4h-3v-16.26h0Z"/>
    <path d="M488.36,147.19c-1.15.41-2.45,1.05-5.14,1.05-5.77,0-8.42-3.51-8.42-8.8,0-4.82,3.03-8.23,7.62-8.23,5.42,0,7.18,3.96,7.18,9.18h-11.61c0,3.22,2.52,5.42,5.36,5.42,1.98,0,4.27-1.02,5.01-1.63v3h0ZM486.42,138.16c0-2.49-1.47-4.53-4.05-4.53-2.93,0-4.15,2.42-4.37,4.53h8.42,0Z"/>
    <path d="M503.86,145.56h-.06c-.8,1.21-2.65,2.68-5.55,2.68-4.91,0-6.98-4.37-6.98-8.8s2.3-8.23,7.02-8.23c2.84,0,4.46,1.12,5.39,2.62h.06v-9.89h3v23.92h-2.87v-2.3h0ZM498.95,145.82c3.38,0,4.78-3.35,4.78-6.06,0-3.03-1.56-6.12-4.82-6.12s-4.53,3.06-4.46,6.03c-.06,2.55,1.27,6.15,4.5,6.15h0Z"/>
    <path d="M514.16,127.96h-3.38v-3.38h3.38v3.38ZM510.97,131.59h3v16.26h-3v-16.26h0Z"/>
    <path d="M526.82,134.01h-4.3v8.9c0,1.88,1.15,2.9,2.52,2.9.92,0,1.59-.29,2.04-.57v2.55c-.67.19-1.59.45-2.55.45-3.09,0-5.01-1.47-5.01-4.72v-9.5h-3.67v-2.42h3.67v-3.76l3-.96v4.72h4.3v2.42h0Z"/>
    <path d="M554.56,138.64c0,6.25-3.16,9.6-8.64,9.6s-8.64-3.35-8.64-9.6v-13.04h3.19v12.63c0,4.27,1.34,7.21,5.45,7.21s5.45-2.93,5.45-7.21v-12.63h3.19v13.04h0Z"/>
    <path d="M558.74,131.59h2.9v2.58h.06c.89-1.85,3.06-2.97,5.33-2.97,4.21,0,6.09,2.62,6.09,6.98v9.66h-3v-8.42c0-3.79-.83-5.65-3.44-5.8-3.41,0-4.94,2.74-4.94,6.7v7.53h-3v-16.26h0Z"/>
    <path d="M580.55,127.96h-3.38v-3.38h3.38v3.38ZM577.36,131.59h3v16.26h-3v-16.26Z"/>
    <path d="M591.77,131.21c4.94,0,8.26,3.57,8.26,8.52,0,4.65-3.38,8.51-8.26,8.51s-8.29-3.86-8.29-8.51c0-4.94,3.32-8.52,8.29-8.52ZM591.77,145.82c3.51,0,5.07-3.19,5.07-6.09,0-3.09-1.88-6.09-5.07-6.09s-5.1,3-5.1,6.09c0,2.9,1.56,6.09,5.1,6.09Z"/>
    <path d="M602.8,131.59h2.9v2.58h.06c.89-1.85,3.06-2.97,5.33-2.97,4.21,0,6.09,2.62,6.09,6.98v9.66h-3v-8.42c0-3.79-.83-5.65-3.44-5.8-3.41,0-4.94,2.74-4.94,6.7v7.53h-3v-16.26h0Z"/>
  </g>
</svg>