<?xml version="1.0" encoding="UTF-8"?>
<svg id="Layer_1" xmlns="http://www.w3.org/2000/svg" version="1.1" xmlns:x="ns_extend;" xmlns:xlink="http://www.w3.org/1999/xlink" viewBox="0 0 1191.92 171">
  <!-- Generator: Adobe Illustrator 29.5.1, SVG Export Plug-In . SVG Version: 2.1.0 Build 141)  -->
  <defs>
    <style>
      .st0 {
        fill: url(#radial-gradient);
        isolation: isolate;
        opacity: .65;
      }

      .st1 {
        fill: url(#linear-gradient);
      }
    </style>
    <linearGradient id="linear-gradient" x1="274.82" y1="1160.95" x2="273.22" y2="1163.46" gradientTransform="translate(-8884.54 40114.57) scale(34.42 -34.42)" gradientUnits="userSpaceOnUse">
      <stop offset="0" stop-color="#f9a020"/>
      <stop offset=".2" stop-color="#f99d20"/>
      <stop offset=".43" stop-color="#f79320"/>
      <stop offset=".62" stop-color="#f68820"/>
      <stop offset=".8" stop-color="#f57e20"/>
      <stop offset="1" stop-color="#f47521"/>
    </linearGradient>
    <radialGradient id="radial-gradient" cx="263.61" cy="1181.37" fx="263.61" fy="1181.37" r="4.08" gradientTransform="translate(32701.67 -6545.73) rotate(-117.81) scale(34.42 -26.7)" gradientUnits="userSpaceOnUse">
      <stop offset="0" stop-color="#ff932c"/>
      <stop offset=".57" stop-color="#e86d20"/>
      <stop offset=".86" stop-color="#e85718" stop-opacity=".87"/>
      <stop offset="1" stop-color="#640000"/>
    </radialGradient>
  </defs>
  <g id="Page-1">
    <g id="Artboard-Copy">
      <g id="Discover-Card">
        <path id="Shape" d="M76.99,8.69h-43.42v150.79h42.82c22.88,0,39.32-5.29,54.01-17.59,17.03-14.09,27.58-35.78,27.58-58.11,0-44.02-33.43-75.1-80.99-75.1h0ZM111.06,121.96c-9.39,8.2-21.13,11.74-40.47,11.74h-7.64V33.92h7.64c18.79,0,30.53,3.5,40.47,12.34,10.55,9.39,16.44,23.48,16.44,37.57-.04,14.64-5.89,29.29-16.44,38.13h0Z"/>
        <rect id="Rectangle-path" x="171.47" y="8.69" width="29.33" height="150.79"/>
        <path id="Shape1" data-name="Shape" d="M273,66.2c-17.59-6.45-22.88-10.55-22.88-18.79,0-9.39,9.39-16.44,21.73-16.44,8.79,0,15.84,3.5,24.08,12.34l15.24-20.54c-12.89-11.14-27.58-17.03-44.61-17.03-26.98,0-46.96,18.79-46.96,43.42,0,21.13,9.39,31.68,36.97,41.67,11.74,4.1,17.59,7.04,20.54,8.79,5.85,3.5,8.79,9.39,8.79,15.84,0,12.34-9.99,21.13-22.88,21.13-14.09,0-25.23-7.04-32.28-19.94l-18.79,17.59c13.49,19.94,29.93,28.73,52.21,28.73,30.53,0,52.21-20.54,52.21-49.87.04-23.44-9.9-34.58-43.38-46.92h0Z"/>
        <path id="Shape2" data-name="Shape" d="M325.81,84.39c0,44.61,34.62,78.64,79.79,78.64,12.89,0,23.48-2.35,36.97-8.79v-34.62c-11.74,11.74-22.29,16.44-35.78,16.44-29.93,0-50.46-21.73-50.46-52.21,0-28.73,21.73-51.66,49.31-51.66,14.09,0,24.63,4.7,36.97,17.03V14.58c-12.89-6.45-23.48-9.39-36.37-9.39-44.61-.04-80.43,35.18-80.43,79.2h0Z"/>
        <polygon id="Shape3" data-name="Shape" points="680.85 110.22 640.93 8.69 608.65 8.69 672.61 163.63 688.49 163.63 753.6 8.69 721.92 8.69 680.85 110.22"/>
        <polygon id="Shape4" data-name="Shape" points="767.09 159.48 850.43 159.48 850.43 134.25 796.46 134.25 796.46 93.18 848.68 93.18 848.68 67.35 796.46 67.35 796.46 33.92 850.43 33.92 850.43 8.69 767.09 8.69 767.09 159.48"/>
        <path id="Shape5" data-name="Shape" d="M967.2,53.26c0-28.18-19.38-44.61-53.41-44.61h-43.97v150.79h29.33v-60.37h4.1l40.47,60.45h36.37l-47.52-63.4c22.33-4.7,34.62-19.94,34.62-42.86h0ZM907.94,77.94h-8.79v-45.77h8.79c18.19,0,28.18,7.64,28.18,22.29.6,15.24-9.39,23.48-28.18,23.48h0Z"/>
        <g id="Group">
          <circle id="Oval" class="st1" cx="535.3" cy="84.96" r="79.79"/>
          <path id="Oval1" data-name="Oval" class="st0" d="M535.3,164.8c44.06,0,79.79-35.73,79.79-79.79S579.4,5.16,535.3,5.16s-79.79,35.73-79.79,79.79,35.73,79.84,79.79,79.84Z"/>
        </g>
        <g id="Group1" data-name="Group">
          <path id="Shape6" data-name="Shape" d="M987.75,15.15c0-2.95-1.75-4.1-5.29-4.1h-4.7v14.09h3.5v-5.89l4.1,5.29h4.1l-4.7-5.85c1.84-.04,2.99-1.79,2.99-3.54h0ZM981.9,16.9h0l-.6-3.5h.6c1.75,0,2.35.6,2.35,1.75s-1.2,1.75-2.35,1.75h0Z"/>
          <path id="Shape7" data-name="Shape" d="M983.05,5.16c-7.04,0-12.34,5.29-12.34,12.34s5.29,12.34,12.34,12.34c6.45,0,12.34-5.29,12.34-12.34-.6-6.49-5.89-12.34-12.34-12.34h0ZM983.05,27.45c-5.29,0-9.99-4.7-9.99-9.99,0-5.85,4.1-9.99,9.99-9.99,5.29,0,9.39,4.7,9.39,9.99,0,5.89-4.1,9.99-9.39,9.99h0Z"/>
        </g>
      </g>
    </g>
  </g>
  <g>
    <path d="M1001.62,58.32h7.39v34.24h16.63v6.2h-24.02v-40.44Z"/>
    <path d="M1064.76,78.13c0,13.54-8.21,21.28-19.35,21.28s-18.65-8.73-18.65-20.57,7.84-21.19,19.25-21.19,18.75,8.91,18.75,20.47ZM1034.56,78.7c0,8.25,4.17,14.81,11.23,14.81s11.17-6.64,11.17-15.1c0-7.63-3.79-14.84-11.16-14.84s-11.25,6.82-11.25,15.13Z"/>
    <path d="M1078.31,87.33l-3.45,11.43h-7.64l12.98-40.44h9.41l13.14,40.44h-7.93l-3.66-11.43h-12.85ZM1089.93,81.74l-3.19-9.96c-.78-2.51-1.44-5.26-2.06-7.6h-.13c-.59,2.37-1.21,5.17-1.92,7.58l-3.12,9.99h10.42Z"/>
    <path d="M1108.36,98.76v-40.44h8.44l10.45,17.36c2.66,4.47,5.02,9.16,6.88,13.55l.15-.04c-.52-5.37-.66-10.58-.66-16.76v-14.11h6.83v40.44h-7.66l-10.55-17.79c-2.58-4.44-5.26-9.36-7.25-13.95l-.19.04c.3,5.25.39,10.59.39,17.23v14.47h-6.83Z"/>
    <path d="M1148.78,90.7c2.38,1.37,6.01,2.58,9.77,2.58,4.71,0,7.35-2.21,7.35-5.52,0-3.05-2.05-4.85-7.17-6.71-6.68-2.37-10.95-5.95-10.95-11.75,0-6.62,5.54-11.61,14.31-11.61,4.38,0,7.59.93,9.69,2l-1.77,5.96c-1.46-.77-4.28-1.92-8.08-1.92-4.69,0-6.68,2.49-6.68,4.87,0,3.1,2.34,4.56,7.74,6.62,7.02,2.68,10.4,6.21,10.4,12.02,0,6.5-4.9,12.15-15.33,12.15-4.28,0-8.72-1.22-10.93-2.57l1.63-6.12Z"/>
    <path d="M1013.74,117.2c-3.83,5.71-6.72,13.61-6.72,24.42s2.97,18.46,6.72,24.23h-5.35c-3.47-4.8-7.3-12.63-7.3-24.26.04-11.72,3.83-19.56,7.3-24.39h5.35Z"/>
    <path d="M1041.77,125c-1.08-.04-2.27,0-3.76.18-8.19.95-12.12,5.95-13.08,11.37h.16c1.91-2.19,4.86-3.75,8.79-3.75,6.72,0,11.95,4.79,11.95,12.68,0,7.48-5.46,13.94-13.75,13.94-9.46,0-14.71-7.18-14.71-16.83,0-7.5,2.71-13.6,6.77-17.48,3.58-3.39,8.31-5.32,13.88-5.76,1.62-.19,2.83-.19,3.74-.15l.02,5.8ZM1038.33,145.89c0-4.5-2.49-7.72-6.79-7.72-2.78,0-5.26,1.7-6.38,4.05-.29.56-.47,1.29-.47,2.32.13,5.16,2.55,9.36,7.34,9.36,3.82,0,6.31-3.32,6.31-8.01Z"/>
    <path d="M1074.99,125.88h-15l-1.14,7.79c.87-.11,1.65-.17,2.81-.17,3.41,0,6.84.77,9.45,2.5,2.97,1.87,5.1,5.18,5.1,9.9,0,7.43-6.15,13.51-15.74,13.51-4.53,0-8.3-1.14-10.35-2.3l1.52-5.58c1.67.9,5.05,2.06,8.59,2.06,4.31,0,8.45-2.47,8.43-7.11-.02-4.45-3.29-7.43-11.07-7.43-2.19,0-3.81.17-5.33.38l2.53-19.68h20.2v6.12Z"/>
    <path d="M1109.15,119.76v4.72l-16.49,34.28h-7.76l16.44-32.78v-.12h-18.41v-6.1h26.23Z"/>
    <path d="M1126.08,126.43h-.12l-7.13,3.58-1.29-5.57,9.52-4.69h6.15v39h-7.14v-32.32Z"/>
    <path d="M1145.77,165.86c3.75-5.72,6.72-13.67,6.72-24.37s-2.93-18.52-6.72-24.28h5.35c3.47,4.75,7.3,12.56,7.3,24.31-.04,11.7-3.83,19.46-7.3,24.34h-5.35Z"/>
  </g>
</svg>