<?xml version="1.0" encoding="UTF-8"?>
<svg id="Layer_1" xmlns="http://www.w3.org/2000/svg" version="1.1" xmlns:x="ns_extend;" xmlns:xlink="http://www.w3.org/1999/xlink" viewBox="0 0 1191.92 171">
  <!-- Generator: Adobe Illustrator 29.5.1, SVG Export Plug-In . SVG Version: 2.1.0 Build 141)  -->
  <defs>
    <style>
      .st0 {
        fill: url(#radial-gradient);
        isolation: isolate;
        opacity: .65;
      }

      .st1 {
        fill: url(#linear-gradient);
      }
    </style>
    <linearGradient id="linear-gradient" x1="274.94" y1="1160.95" x2="273.33" y2="1163.46" gradientTransform="translate(-8884.54 40114.57) scale(34.42 -34.42)" gradientUnits="userSpaceOnUse">
      <stop offset="0" stop-color="#f9a020"/>
      <stop offset=".2" stop-color="#f99d20"/>
      <stop offset=".43" stop-color="#f79320"/>
      <stop offset=".62" stop-color="#f68820"/>
      <stop offset=".8" stop-color="#f57e20"/>
      <stop offset="1" stop-color="#f47521"/>
    </linearGradient>
    <radialGradient id="radial-gradient" cx="263.56" cy="1181.24" fx="263.56" fy="1181.24" r="4.08" gradientTransform="translate(32701.67 -6545.73) rotate(-117.81) scale(34.42 -26.7)" gradientUnits="userSpaceOnUse">
      <stop offset="0" stop-color="#ff932c"/>
      <stop offset=".57" stop-color="#e86d20"/>
      <stop offset=".86" stop-color="#e85718" stop-opacity=".87"/>
      <stop offset="1" stop-color="#640000"/>
    </radialGradient>
  </defs>
  <g id="Page-1">
    <g id="Artboard-Copy">
      <g id="Discover-Card">
        <path id="Shape" d="M80.99,8.69h-43.42v150.79h42.82c22.88,0,39.32-5.29,54.01-17.59,17.03-14.09,27.58-35.78,27.58-58.11,0-44.02-33.43-75.1-80.99-75.1h0ZM115.06,121.96c-9.39,8.2-21.13,11.74-40.47,11.74h-7.64V33.92h7.64c18.79,0,30.53,3.5,40.47,12.34,10.55,9.39,16.44,23.48,16.44,37.57-.04,14.64-5.89,29.29-16.44,38.13h0Z"/>
        <rect id="Rectangle-path" x="175.47" y="8.69" width="29.33" height="150.79"/>
        <path id="Shape1" data-name="Shape" d="M277,66.2c-17.59-6.45-22.88-10.55-22.88-18.79,0-9.39,9.39-16.44,21.73-16.44,8.79,0,15.84,3.5,24.08,12.34l15.24-20.54c-12.89-11.14-27.58-17.03-44.61-17.03-26.98,0-46.96,18.79-46.96,43.42,0,21.13,9.39,31.68,36.97,41.67,11.74,4.1,17.59,7.04,20.54,8.79,5.85,3.5,8.79,9.39,8.79,15.84,0,12.34-9.99,21.13-22.88,21.13-14.09,0-25.23-7.04-32.28-19.94l-18.79,17.59c13.49,19.94,29.93,28.73,52.21,28.73,30.53,0,52.21-20.54,52.21-49.87.04-23.44-9.9-34.58-43.38-46.92h0Z"/>
        <path id="Shape2" data-name="Shape" d="M329.81,84.39c0,44.61,34.62,78.64,79.79,78.64,12.89,0,23.48-2.35,36.97-8.79v-34.62c-11.74,11.74-22.29,16.44-35.78,16.44-29.93,0-50.46-21.73-50.46-52.21,0-28.73,21.73-51.66,49.31-51.66,14.09,0,24.63,4.7,36.97,17.03V14.58c-12.89-6.45-23.48-9.39-36.37-9.39-44.61-.04-80.43,35.18-80.43,79.2h0Z"/>
        <polygon id="Shape3" data-name="Shape" points="684.85 110.22 644.93 8.69 612.65 8.69 676.61 163.63 692.49 163.63 757.6 8.69 725.92 8.69 684.85 110.22"/>
        <polygon id="Shape4" data-name="Shape" points="771.09 159.48 854.43 159.48 854.43 134.25 800.46 134.25 800.46 93.18 852.68 93.18 852.68 67.35 800.46 67.35 800.46 33.92 854.43 33.92 854.43 8.69 771.09 8.69 771.09 159.48"/>
        <path id="Shape5" data-name="Shape" d="M971.2,53.26c0-28.18-19.38-44.61-53.41-44.61h-43.97v150.79h29.33v-60.37h4.1l40.47,60.45h36.37l-47.52-63.4c22.33-4.7,34.62-19.94,34.62-42.86h0ZM911.94,77.94h-8.79v-45.77h8.79c18.19,0,28.18,7.64,28.18,22.29.6,15.24-9.39,23.48-28.18,23.48h0Z"/>
        <g id="Group">
          <circle id="Oval" class="st1" cx="539.3" cy="84.96" r="79.79"/>
          <path id="Oval1" data-name="Oval" class="st0" d="M539.3,164.8c44.06,0,79.79-35.73,79.79-79.79S583.4,5.16,539.3,5.16s-79.79,35.73-79.79,79.79,35.73,79.84,79.79,79.84Z"/>
        </g>
        <g id="Group1" data-name="Group">
          <path id="Shape6" data-name="Shape" d="M991.75,15.15c0-2.95-1.75-4.1-5.29-4.1h-4.7v14.09h3.5v-5.89l4.1,5.29h4.1l-4.7-5.85c1.84-.04,2.99-1.79,2.99-3.54h0ZM985.9,16.9h0l-.6-3.5h.6c1.75,0,2.35.6,2.35,1.75s-1.2,1.75-2.35,1.75h0Z"/>
          <path id="Shape7" data-name="Shape" d="M987.05,5.16c-7.04,0-12.34,5.29-12.34,12.34s5.29,12.34,12.34,12.34c6.45,0,12.34-5.29,12.34-12.34-.6-6.49-5.89-12.34-12.34-12.34h0ZM987.05,27.45c-5.29,0-9.99-4.7-9.99-9.99,0-5.85,4.1-9.99,9.99-9.99,5.29,0,9.39,4.7,9.39,9.99,0,5.89-4.1,9.99-9.39,9.99h0Z"/>
        </g>
      </g>
    </g>
  </g>
  <g>
    <path d="M1005.62,58.87c2.36-.48,6.63-.87,10.78-.87,5.42,0,8.82.7,11.57,2.57,2.5,1.54,4.17,4.14,4.17,7.61,0,3.72-2.32,7.11-6.73,8.72v.16c4.27,1.08,8.18,4.45,8.18,10.02,0,3.59-1.55,6.38-3.87,8.35-2.88,2.49-7.62,3.73-15.03,3.73-4.11,0-7.17-.28-9.09-.53v-39.74ZM1012.95,74.85h3.78c5.12,0,7.97-2.41,7.97-5.83,0-3.8-2.88-5.54-7.53-5.54-2.19,0-3.43.15-4.23.32v11.05ZM1012.95,93.39c.96.18,2.21.21,3.91.21,4.72,0,8.98-1.78,8.98-6.77,0-4.7-4.14-6.63-9.21-6.63h-3.67v13.19Z"/>
    <path d="M1048.11,87.33l-3.45,11.43h-7.64l12.98-40.44h9.41l13.14,40.44h-7.93l-3.66-11.43h-12.85ZM1059.73,81.74l-3.19-9.96c-.78-2.51-1.44-5.26-2.06-7.6h-.13c-.59,2.37-1.21,5.17-1.92,7.58l-3.12,9.99h10.42Z"/>
    <path d="M1078.16,98.76v-40.44h8.44l10.45,17.36c2.66,4.47,5.02,9.16,6.88,13.55l.15-.04c-.52-5.37-.66-10.58-.66-16.76v-14.11h6.83v40.44h-7.66l-10.55-17.79c-2.58-4.44-5.26-9.36-7.25-13.95l-.19.04c.3,5.25.39,10.59.39,17.23v14.47h-6.83Z"/>
    <path d="M1118.72,58.32h7.33v18.6h.17c.96-1.55,2-2.99,2.96-4.36l10.59-14.25h9.09l-13.94,17.2,14.85,23.24h-8.64l-11.45-18.51-3.63,4.32v14.19h-7.33v-40.44Z"/>
    <path d="M1017.74,117.2c-3.83,5.71-6.72,13.61-6.72,24.42s2.97,18.46,6.72,24.23h-5.35c-3.47-4.8-7.3-12.63-7.3-24.26.04-11.72,3.83-19.56,7.3-24.39h5.35Z"/>
    <path d="M1021.51,148.71c0-4.81,2.81-8.14,7.29-10.11v-.16c-4.05-1.98-5.91-5.24-5.91-8.64,0-6.4,5.62-10.7,13.01-10.7,8.42,0,12.21,5.03,12.21,9.82,0,3.34-1.74,6.77-6.01,8.84v.17c4.26,1.67,7.47,4.99,7.47,9.87,0,6.96-5.88,11.63-14.23,11.63-9.1,0-13.83-5.24-13.83-10.71ZM1042.05,148.4c0-3.98-2.9-6.14-7.24-7.33-3.69,1.04-5.76,3.59-5.76,6.8-.1,3.33,2.43,6.35,6.56,6.35,3.9,0,6.44-2.48,6.44-5.82ZM1029.89,129.46c-.02,3.21,2.62,5.1,6.37,6.17,2.66-.83,4.84-2.98,4.84-5.92,0-2.71-1.6-5.51-5.59-5.51-3.68,0-5.62,2.44-5.62,5.27Z"/>
    <path d="M1054.2,158.76v-4.48l4.62-4.3c9.17-8.49,13.5-13.16,13.55-18.32,0-3.52-1.87-6.56-6.97-6.56-3.45,0-6.38,1.75-8.33,3.25l-2.16-5.25c2.8-2.24,7.07-4,11.97-4,8.65,0,12.88,5.43,12.88,11.81,0,6.86-4.93,12.37-11.75,18.67l-3.38,2.96v.12h15.98v6.1h-26.42Z"/>
    <path d="M1085.83,148.71c0-4.81,2.81-8.14,7.29-10.11v-.16c-4.05-1.98-5.91-5.24-5.91-8.64,0-6.4,5.62-10.7,13.01-10.7,8.42,0,12.21,5.03,12.21,9.82,0,3.34-1.74,6.77-6.01,8.84v.17c4.26,1.67,7.47,4.99,7.47,9.87,0,6.96-5.88,11.63-14.23,11.63-9.1,0-13.83-5.24-13.83-10.71ZM1106.37,148.4c0-3.98-2.9-6.14-7.24-7.33-3.69,1.04-5.76,3.59-5.76,6.8-.1,3.33,2.43,6.35,6.56,6.35,3.9,0,6.44-2.48,6.44-5.82ZM1094.21,129.46c-.02,3.21,2.62,5.1,6.37,6.17,2.66-.83,4.84-2.98,4.84-5.92,0-2.71-1.6-5.51-5.59-5.51-3.68,0-5.62,2.44-5.62,5.27Z"/>
    <path d="M1119.99,151.13c1.54.89,5.18,2.39,8.89,2.39,5.63,0,7.91-3.18,7.89-6.25-.04-4.59-4.36-6.6-8.86-6.61h-3.37v-5.38h3.29c3.41,0,7.71-1.55,7.71-5.42,0-2.69-1.94-4.89-6.24-4.89-3.16,0-6.36,1.37-7.98,2.44l-1.67-5.33c2.22-1.51,6.56-2.98,11.23-2.98,8.06,0,12.16,4.45,12.16,9.55,0,4.07-2.4,7.41-7.16,9.11v.12c4.73.88,8.55,4.45,8.55,9.72,0,6.59-5.54,11.82-15.17,11.82-4.75,0-8.81-1.33-10.91-2.7l1.65-5.58Z"/>
    <path d="M1149.77,165.86c3.75-5.72,6.72-13.67,6.72-24.37s-2.93-18.52-6.72-24.28h5.35c3.47,4.75,7.3,12.56,7.3,24.31-.04,11.7-3.83,19.46-7.3,24.34h-5.35Z"/>
  </g>
</svg>