<?xml version="1.0" encoding="UTF-8"?>
<svg id="STANDARD_UPDATE" xmlns="http://www.w3.org/2000/svg" version="1.1" viewBox="0 0 1000 171">
  <!-- Generator: Adobe Illustrator 29.5.1, SVG Export Plug-In . SVG Version: 2.1.0 Build 141)  -->
  <path d="M267.52,118.85c2.51,1.01,6.23,1.66,11.16,1.96v2.11h-55.64v-2.11c4.92-.3,8.65-.95,11.16-1.96,2.51-1,4.25-2.61,5.2-4.83.95-2.21,1.43-5.48,1.43-9.8V36.95h-.45l-38.15,87.92h-.45l-40.87-87.61h-.45v66.95c0,4.32.5,7.59,1.51,9.8,1,2.21,2.74,3.82,5.2,4.83,2.46,1.01,6.16,1.66,11.08,1.96v2.11h-42.45v-2.11c4.92-.3,8.62-.95,11.08-1.96,2.46-1,4.2-2.61,5.2-4.83,1-2.21,1.51-5.48,1.51-9.8V36.8c0-4.32-.5-7.59-1.51-9.8s-2.74-3.82-5.2-4.83c-2.47-1-6.16-1.66-11.08-1.96v-2.11h38.08l34.78,75.93,33.73-75.93h36.29v2.11c-4.93.3-8.65.96-11.16,1.96-2.51,1.01-4.27,2.64-5.28,4.9-1.01,2.26-1.51,5.5-1.51,9.73v67.41c0,4.32.5,7.59,1.51,9.8,1.01,2.22,2.77,3.82,5.28,4.83ZM343.12,68.02c3.11,5.73,4.67,12.21,4.67,19.45s-1.56,13.72-4.67,19.45c-3.12,5.73-7.46,10.16-13.04,13.27-5.58,3.12-11.94,4.68-19.08,4.68s-13.47-1.56-19-4.68c-5.53-3.11-9.88-7.54-13.04-13.27-3.17-5.73-4.75-12.21-4.75-19.45s1.58-13.72,4.75-19.45,7.51-10.15,13.04-13.27c5.53-3.12,11.86-4.68,19-4.68s13.5,1.56,19.08,4.68c5.58,3.12,9.92,7.54,13.04,13.27ZM328.04,87.47c0-7.14-.68-13.27-2.04-18.4-1.36-5.13-3.32-9.02-5.88-11.69-2.56-2.66-5.61-4-9.12-4s-6.56,1.33-9.12,4c-2.56,2.67-4.52,6.56-5.88,11.69-1.36,5.13-2.04,11.26-2.04,18.4s.68,13.27,2.04,18.4c1.36,5.13,3.32,9.02,5.88,11.69,2.56,2.67,5.6,4,9.12,4s6.56-1.33,9.12-4c2.56-2.66,4.52-6.56,5.88-11.69,1.36-5.13,2.04-11.26,2.04-18.4ZM398.92,66.22c2.61,0,4.98.45,7.09,1.36v-16.59c-1.31-.6-2.86-.9-4.67-.9-4.63,0-8.72,2.04-12.29,6.11s-6.35,8.75-8.93,18.07h-.34v-23.58h-.6l-29.86,8.6v1.96c3.42,0,6.06.33,7.92.98,1.86.65,3.19,1.71,4,3.17.8,1.46,1.21,3.44,1.21,5.96v37.4c0,3.12-.3,5.43-.9,6.94s-1.71,2.64-3.32,3.39c-1.61.75-4.17,1.33-7.69,1.73v2.11h41.92v-2.11c-3.52-.3-6.16-.83-7.92-1.58s-2.99-1.91-3.69-3.47-1.06-3.9-1.06-7.01v-29.64c3.16-7.43,10.12-12.9,19.13-12.9ZM618.97,115.6c-.6-1.56-.9-3.89-.9-7.01v-34.39c0-16.15-8.94-24.13-20.66-24.13s-19.25,8.3-22.47,12.72h-.3v-12.11h-.6l-29.86,8.6v1.96c3.32,0,5.93.33,7.84.98,1.91.65,3.27,1.68,4.07,3.09s1.21,3.37,1.21,5.88v37.39c0,3.12-.3,5.46-.9,7.01-.6,1.56-1.71,2.71-3.32,3.47-1.61.75-4.17,1.33-7.69,1.73v2.11h39.21v-2.11c-2.71-.4-4.8-.98-6.26-1.73s-2.44-1.91-2.94-3.47-.75-3.89-.75-7.01v-40.31c3.47-4.21,7.55-8.25,14.18-8.25,9.11,0,11.91,6.87,11.91,14.63v33.93c0,3.12-.28,5.46-.83,7.01-.55,1.56-1.51,2.71-2.87,3.47-1.36.75-3.44,1.33-6.26,1.73v2.11h38.76v-2.11c-3.32-.4-5.76-.98-7.31-1.73-1.58-.75-2.65-1.9-3.26-3.46ZM1000,102.1c-3.33,7.27-12.62,22.77-31.52,22.77s-32.87-14.68-32.87-36.79c0-6.94,1.51-13.32,4.52-19.15,3.02-5.83,7.11-10.43,12.29-13.8s10.88-5.05,17.12-5.05c18.11,0,27.14,12.76,27.14,26.06v3h-44.93c0,.27-.01.53-.01.8,0,16,7.12,31.37,25.03,31.37,13.62,0,19.32-7.54,21.56-10.25l1.67,1.04ZM952.06,74.06h28.18c-.19-10.93-3.45-20.47-12.36-20.51-8.36-.03-14.42,7.77-15.82,20.51ZM799.99,115.6c-.6-1.56-.9-3.89-.9-7.01v-34.39c0-5.23-.88-9.65-2.64-13.27-1.76-3.62-4.2-6.33-7.31-8.14-3.12-1.81-6.69-2.71-10.71-2.71-4.63,0-8.72,1.18-12.29,3.54s-6.96,5.76-10.18,10.18h-.3V14.58h-.6l-29.86,8.6v1.96c3.32,0,5.93.33,7.84.98,1.91.65,3.27,1.68,4.07,3.09s1.21,3.37,1.21,5.88v73.49c0,3.12-.3,5.46-.9,7.01-.6,1.56-1.71,2.71-3.32,3.47-1.61.75-4.17,1.33-7.69,1.73v2.11h39.21v-2.11c-2.71-.4-4.8-.98-6.26-1.73s-2.44-1.91-2.94-3.47-.75-3.89-.75-7.01v-40.31c3.47-4.21,7.55-8.25,14.18-8.25,3.72,0,6.63,1.23,8.75,3.69,2.11,2.46,3.17,6.11,3.17,10.93v33.94c0,3.12-.28,5.46-.83,7.01-.55,1.56-1.51,2.71-2.87,3.47-1.36.75-3.44,1.33-6.26,1.73v2.11h38.76v-2.11c-3.32-.4-5.76-.98-7.31-1.73-1.59-.75-2.66-1.9-3.27-3.46ZM690.46,116.4c-22.24.15-39.88-17.73-39.88-46.74,0-30.66,16.43-48.54,35.22-48.54s26.85,16.93,30.96,33.56l3.01-.05v-30.6c-7.06-3.91-18.64-8.32-35.47-8.32-32.46,0-56.96,23.75-56.96,55.46s20.44,54.1,55.61,53.95c19.39-.15,32.91-11.72,39.37-20.59l-2.1-2.25c-4.36,4.96-13.08,13.97-29.76,14.12ZM914.35,81l-10.4-4.98c-6.91-3.09-10.86-7.18-10.86-12.21,0-5.7,5.22-9.6,12.52-9.6,10.63,0,16.14,5.88,18.42,18.95h3.14v-19c-3.12-1.21-11.36-4.07-19.75-4.07-16.59,0-26.69,10.43-26.69,22.47,0,4.63,1.23,8.67,3.69,12.14s6.16,6.46,11.08,8.97l10.86,5.43c7.43,3.39,10.41,6.73,10.41,11.76,0,5.56-4.48,9.91-12.97,9.91-12.41,0-18.31-11.77-19.93-21.22h-3.14v19.45c4.73,3.06,13.63,5.88,21.87,5.88,15.9,0,26.99-9.74,26.99-23.52,0-9.93-5.31-16.14-15.24-20.36ZM90.03,77.22v26.99c0,4.22.6,7.46,1.81,9.73,1.21,2.26,3.22,3.9,6.03,4.9,2.81,1.01,7.09,1.66,12.82,1.96v2.11h-58.36v-2.11c4.92-.3,8.62-.95,11.08-1.96,2.46-1,4.2-2.61,5.2-4.83,1-2.21,1.51-5.48,1.51-9.8V37.26c0-13.79-6.23-16.59-15.69-16.59-10.38,0-16.73,2.79-16.73,16.14v74.91c0,16.93-11,33.03-32.72,33.03-1.68,0-3.34-.1-4.98-.29v-1.81c5.16-.31,9.34-2.06,12.52-5.29,3.52-3.57,5.28-9.42,5.28-17.57V36.8c0-4.22-.5-7.47-1.51-9.73s-2.77-3.89-5.28-4.9C8.5,21.17,4.83,20.51,0,20.21v-2.11h103.05c23.44,0,37.95,11.72,37.95,29.41,0,20.25-19.89,29.71-37.67,29.71h-13.3ZM90.03,73.17h7.19c12.23,0,22.52-7.16,22.52-25.51,0-22.43-14.81-25.51-22.15-25.51h-7.56s0,51.02,0,51.02ZM538.1,116.89c2.49,0,4.68-1.09,6.07-2.03v3.58c-2.78,2.6-7.94,6.38-15.7,6.38-6.54,0-12.03-4.15-13.49-10.48h-.39c-2.55,4.82-10.34,10.91-18.84,10.91-10.2,0-17.71-6.8-17.71-17.14,0-8.08,5.53-13.46,14.73-16.72l21.82-7.86v-10.13c0-9.21-6.66-13.46-13.88-13.46s-14.17,3.12-21.25,10.34l-2.12-1.98c6.23-10.06,16.15-18.28,30.46-18.28s24.51,8.93,24.37,23.38l-.28,36.13c-.02,5.09,2.11,7.36,6.21,7.36ZM514.59,88.25l-8.78,3.56c-6.8,2.69-11.19,5.81-11.19,13.03,0,6.09,4.25,10.34,10.2,10.34,3.12,0,7.65-2.41,9.78-5.1v-21.83h-.01ZM871.01,116.89c2.5,0,4.68-1.1,6.08-2.03v3.58c-2.78,2.6-7.94,6.39-15.71,6.39-6.54,0-12.03-4.15-13.49-10.48h-.39c-2.55,4.82-10.34,10.91-18.84,10.91-10.2,0-17.71-6.8-17.71-17.14,0-8.08,5.53-13.46,14.73-16.72l21.82-7.86v-10.14c0-9.21-6.66-13.46-13.88-13.46s-14.17,3.12-21.25,10.34l-2.13-1.98c6.23-10.06,16.15-18.28,30.46-18.28s24.51,8.93,24.37,23.38l-.28,36.13c0,5.09,2.11,7.36,6.22,7.36ZM847.49,88.25l-8.78,3.56c-6.8,2.69-11.19,5.81-11.19,13.03,0,6.09,4.25,10.34,10.2,10.34,3.12,0,7.65-2.41,9.78-5.1v-21.83h-.01ZM460.13,55.03c6.45,5.03,9.3,12.27,9.3,18.45,0,16.23-13.87,24.64-29.66,24.64-4.16,0-8.18-.59-11.85-1.75-2.04,1.57-3.79,3.62-3.79,6.02,0,5.16,8.41,6.2,13.43,6.49l17.12,1.18c13.72.89,22.42,5.75,22.42,18,0,15.49-18.32,28.33-45,28.33-15.49,0-26.56-5.31-26.56-14.76,0-8.21,4.52-12.91,16.14-18.49-7.6-2.21-9.36-6.74-9.36-11.17,0-6.06,5.41-11.5,12.74-16.66-8.78-3.7-14.95-11.03-14.95-21.85,0-16.23,13.87-24.64,29.66-24.64,7.26,0,13.04,1.65,17.49,4.24,3.32-6.67,9.87-14.43,21.61-14.43v13.85c-6.27-1.94-13.92-.93-18.74,2.55ZM417.93,135.17c0,8.56,9.74,12.39,22.43,12.39s28.47-5.46,28.47-14.17c0-5.02-2.8-6.2-10.18-6.79l-29.65-2.2c-1.74-.13-3.31-.33-4.72-.6-4.27,3.33-6.35,6.75-6.35,11.37ZM451.13,73.49c0-13.87-4.57-20.51-11.36-20.51s-11.36,6.64-11.36,20.51,4.57,20.51,11.36,20.51,11.36-6.64,11.36-20.51Z"/>
</svg>