<?xml version="1.0" encoding="UTF-8"?>
<svg id="Layer_1" xmlns="http://www.w3.org/2000/svg" version="1.1" xmlns:x="ns_extend;" xmlns:xlink="http://www.w3.org/1999/xlink" viewBox="0 0 774 171">
  <!-- Generator: Adobe Illustrator 29.5.1, SVG Export Plug-In . SVG Version: 2.1.0 Build 141)  -->
  <defs>
    <style>
      .st0 {
        fill: #6f9;
      }

      .st0, .st1, .st2 {
        fill-rule: evenodd;
      }

      .st1 {
        fill: #1a4bb5;
      }

      .st2 {
        fill: url(#linear-gradient);
      }
    </style>
    <linearGradient id="linear-gradient" x1="682.26" y1="-82.85" x2="685.25" y2="-80.69" gradientTransform="translate(-22280.74 -2720.11) scale(33.48 -34.47)" gradientUnits="userSpaceOnUse">
      <stop offset="0" stop-color="#6f9"/>
      <stop offset="1" stop-color="#3ff"/>
    </linearGradient>
  </defs>
  <g id="NEW-Sears-Logo---Moments">
    <g id="NEW-Product-Options-Header---1024">
      <g id="NEW-Sears-Logo-12-2019---PO-Header">
        <g id="TradeMark">
          <polygon id="Fill-11" class="st0" points="674.74 143.97 671.89 143.97 671.89 142.7 679.06 142.7 679.06 143.97 676.21 143.97 676.21 150.46 674.74 150.46 674.74 143.97"/>
          <polygon id="Fill-14" class="st0" points="680.24 142.7 681.62 142.7 684.08 146.43 686.44 142.7 687.81 142.7 687.81 150.46 686.53 150.46 686.53 144.95 684.08 148.59 683.98 148.59 681.52 144.95 681.52 150.46 680.24 150.46 680.24 142.7"/>
        </g>
        <g id="NEW-Sears-ICON-12-2019">
          <path id="Fill-8" class="st2" d="M571.58,47.65c-3.83,4.42-23.11,27.53-23.11,41.89h0c0,11.6,5.61,29.79,7.37,35.1h0c7.37,22.61,11.8,26.74,17.99,26.74h0c1.37,0,34.22-.2,34.22-18.39h0v-30.58c0-3.35,2.46-4.03,4.42-4.03h0c2.07,0,4.42.69,4.42,4.03h0v30.58c0,18.19,32.84,18.39,34.22,18.39h0c6.09,0,10.52-4.13,17.89-26.74h0c1.77-5.31,7.37-23.5,7.37-35.1h0c0-18.39-40.41-69.91-64.01-69.91h0c-14.45,0-31.76,17.6-40.8,28.02M565.28,89.53c0-3.74,6.59-16.52,18.98-30.87h0c14.06-16.12,24.68-22.12,28.22-22.12h0c12.1,0,47.09,41.98,47.09,53.09h0c0,11.11-7.96,36.18-12.29,44.74h0c-4.81-.49-10.92-1.67-13.57-3.05h0v-28.9c0-11.9-9.14-20.84-21.34-20.84h0c-12.19,0-21.34,8.95-21.34,20.84h0v28.81c-2.55,1.37-8.75,2.65-13.57,3.05h0c-4.13-8.46-12.19-33.53-12.19-44.74"/>
        </g>
        <g id="Sears-Word-Mark">
          <path id="Fill-4" class="st1" d="M344.97,91.06c-5.8,3.05-14.45,3.74-23.5,4.52-3.35.3-6.79.59-10.23.98-18.09,2.26-25.46,8.26-25.46,20.94,0,11.9,9.44,19.56,23.99,19.56,34.02,0,35.1-31.46,35.1-31.86v-14.16h.1,0ZM319.61,38.55c24.09,0,37.36,10.12,37.36,28.42v78.75h-11.99v-14.06c-6.29,8.55-17.99,16.42-35.3,16.42-23.11,0-35.79-10.81-35.79-30.58s13.08-30.09,39.03-31.96c32.35-2.46,32.35-3.64,32.35-18.58,0-3.64-4.33-17.4-25.56-17.4-17.5,0-27.63,8.75-28.51,24.58l-.1.98h-11.99v-.98c.98-23.11,15.34-35.59,40.51-35.59h0ZM187.85,85.55h68.53c-1.28-18.19-13.08-35.99-34.22-35.99-19.86,0-32.05,17.69-34.31,35.99h0ZM255.99,107.77h11.99l-.3,1.87c-4.13,24.87-20.35,38.45-45.62,38.45-28.31,0-46.5-20.84-46.5-53,0-28.12,14.36-56.53,46.5-56.53,13.57,0,24.68,4.33,32.84,12.97,9.53,10.03,14.36,25.27,13.47,42.87l-.1,2.16h-80.82c.3,12.68,4.42,23.99,11.6,31.27,5.9,6,13.86,9.24,23,9.24,17.69,0,30.28-10.42,33.62-27.92l.3-1.37h.02ZM371.42,145.63h11.99v-57.03c0-14.16,3.24-19.86,10.62-27.24,8.07-8.07,17.4-9.34,22.12-9.34,1.18,0,2.46.1,3.93.3l2.36.3v-12.29l-2.16-.1h-1.96c-14.25,0-27.83,6.79-34.81,16.62v-16.03h-11.99v104.81h-.1ZM463.54,147.98c9.73,0,41.49-2.16,41.49-29.99,0-22.52-16.91-27.63-37.36-31.66l-2.16-.49c-15.04-3.05-29.3-5.9-29.3-19.37,0-12.58,13.77-17.01,26.55-17.01s27.14,4.03,27.33,23.5v2.07h11.99v-2.26c0-21.83-14.36-34.31-39.32-34.31-9.05,0-38.54,2.07-38.54,28.02,0,21.54,17.21,26.84,36.38,30.68l2.65.59c16.03,3.24,29.79,6,29.79,20.15,0,17.6-22.52,18.98-29.5,18.98-17.69,0-29.79-10.62-30.87-27.33l-.1-1.96h-11.9v2.36c.59,23.5,17.01,38.05,42.87,38.05h0ZM129.05,147.98c-25.86,0-42.28-14.55-42.87-37.95v-2.26h11.9l.1,1.96c1.08,16.71,13.18,27.33,30.87,27.33,6.88,0,29.5-1.37,29.5-18.98,0-14.25-13.77-17.11-29.79-20.26l-2.65-.59c-19.17-3.83-36.38-9.14-36.38-30.68,0-26.05,29.5-28.02,38.54-28.02,24.98,0,39.32,12.49,39.32,34.31v2.26h-11.9v-2.07c-.2-19.47-14.95-23.5-27.33-23.5s-26.55,4.42-26.55,17.01c0,13.38,14.25,16.32,29.3,19.37l2.16.49c20.45,4.03,37.36,9.14,37.36,31.66-.1,27.72-31.76,29.89-41.59,29.89h0Z"/>
        </g>
      </g>
    </g>
  </g>
</svg>