<?xml version="1.0" encoding="UTF-8"?>
<svg id="Layer_1" xmlns="http://www.w3.org/2000/svg" version="1.1" viewBox="0 0 176.08 171">
  <!-- Generator: Adobe Illustrator 29.5.1, SVG Export Plug-In . SVG Version: 2.1.0 Build 141)  -->
  <defs>
    <style>
      .st0 {
        fill: #f96302;
      }

      .st1 {
        fill: #fff;
      }
    </style>
  </defs>
  <path class="st1" d="M3.97,1.77h168.21v168.21H3.97V1.77Z"/>
  <path class="st0" d="M3.97,1.77h105.54c8.5,0,16.99-.02,25.47.02-2.35,2.38-4.75,4.75-7.12,7.14.94.99,1.92,1.91,2.86,2.88,2.16-1.48,4.59-2.67,7.24-2.86,2.38-.25,4.79.37,6.98,1.33.83.35,1.61.92,2.54,1.01.92-.05,1.61-.87,1.93-1.68.27-.56.02-1.24-.42-1.64-2.05-2.07-4.12-4.1-6.15-6.16,9.79-.05,19.57,0,29.34-.02,0,9.54.02,19.09,0,28.65-2.01-1.98-3.98-3.99-5.97-5.97-.53-.55-1.39-.83-2.12-.5-.48.23-.94.6-1.15,1.11-.27,1.03.19,2.03.6,2.95,1.24,2.61,1.78,5.56,1.41,8.44-.25,1.96-.95,3.89-2.01,5.56-.28.41-.55.83-.8,1.25,1.02.88,1.89,1.94,2.93,2.81,2.33-2.4,4.73-4.75,7.1-7.14,0,15.95.02,31.9,0,47.85-.46.16-.97.48-1.45.25-.64-.41-1.11-1.01-1.64-1.52-5.72-5.69-11.39-11.43-17.13-17.1-2.28,2.28-4.52,4.57-6.84,6.8,1.22,1.38,2.58,2.6,3.85,3.92,4.59,4.59,9.18,9.19,13.8,13.78.39.41.85.76,1.06,1.29.07.58-.34,1.08-.49,1.61-.23.62.27,1.36.92,1.38.58.11,1.08-.28,1.45-.67,2.15-2.17,4.33-4.33,6.48-6.48v79.93h-79.95c2.05-2.05,4.1-4.08,6.15-6.13-6.97-6.96-13.94-13.92-20.9-20.9-2.28,2.19-4.47,4.47-6.73,6.68-.48.5-1.01.97-1.24,1.64-.11.65.49,1.27,1.13,1.31.56-.07,1.04-.44,1.61-.57.49-.03.88.35,1.24.67,4.13,4.17,8.29,8.3,12.44,12.45,1.04,1.09,2.17,2.08,3.14,3.21.44.49.14,1.13-.11,1.62h-47.82l11.29-11.29c.71-.67,1.43-1.45,1.54-2.47.16-1.18-1.04-2.37-2.23-2.12-.99.19-1.8.97-2.83.97-.65-.05-1.15-.53-1.59-.95-8.99-8.97-17.96-17.96-26.94-26.94-.6-.6-1.32-1.18-1.54-2.05-.03-1.02.69-1.85.95-2.79.33-1.18-.78-2.47-1.98-2.38-.83.05-1.57.53-2.14,1.11-3.89,3.94-7.84,7.83-11.73,11.76-.02-43.68,0-87.38,0-131.07"/>
  <path class="st1" d="M125.31,11.47c.16-.18.44-.34.6-.07,12.31,12.3,24.62,24.6,36.92,36.92-4.32,4.32-8.64,8.64-12.95,12.96-.57.53-1.25.97-2.03,1.02-1.08.09-2.16-.88-2.07-1.98.04-1.08.95-1.91.97-3,.04-.69-.49-1.2-.94-1.68-9.13-9.11-18.25-18.25-27.38-27.38-.51-.49-1.08-1.11-1.85-1.06-1.15.02-2.01,1.08-3.18.95-.67.02-1.22-.51-1.55-1.06-.46-.95-.04-2.1.65-2.81,4.27-4.28,8.55-8.55,12.81-12.82M143.04,15.05c.35-.65,1.02-1.25,1.82-1.15.88.07,1.52.8,2.1,1.38,3.53,3.54,7.06,7.08,10.6,10.62.67.65,1.47,1.29,1.62,2.26.09,1.01-.83,1.91-1.8,2.01-.81.02-1.55-.42-2.26-.81-1.5-.88-3.2-1.59-4.98-1.5-.92-.02-1.8.35-2.63.72-.97-1.04-2.08-1.98-3-3.05.28-.8.65-1.55.71-2.4.12-1.92-.65-3.76-1.62-5.37-.49-.79-.88-1.78-.55-2.7M65.19,24.41c1.91-2.01,3.92-3.9,5.83-5.9,1.82,1.77,3.59,3.55,5.37,5.33.58.57.05,1.52-.6,1.75-.55.07-1.03-.3-1.52-.48-1.91-.94-4.27-1.04-6.18-.02-.5.21-.9.64-1.43.72-.53-.42-.97-.95-1.47-1.41M63.99,25.54c2.6,2.51,5.1,5.1,7.67,7.63,4.01,3.99,8,8.02,12.03,12.01-2.29,2.32-4.6,4.63-6.92,6.92-.48.53-1.43.76-1.89.11-.56-.6.05-1.34.23-1.96.21-.46-.16-.87-.46-1.18-4.62-4.61-9.24-9.22-13.85-13.85-.42-.39-.78-.87-1.29-1.13-.71-.16-1.25.48-1.94.51-.53-.05-1.02-.58-.95-1.13.03-.42.28-.79.58-1.09,2.26-2.28,4.56-4.52,6.8-6.84M73.21,28.37c-.23-.58.18-1.29.8-1.38.46-.07.83.28,1.15.58,1.91,1.91,3.81,3.83,5.74,5.72.33.37.81.71.85,1.25.07.55-.46,1.08-1.02,1.02-.74,0-1.31-.58-1.98-.83-.99-.46-2.19-.49-3.16.04-.51-.51-1.03-1.04-1.55-1.52.23-.78.44-1.61.25-2.42-.14-.92-.78-1.62-1.06-2.47M107.04,29.75c.48-.48,1.08-.83,1.75-.92,1.18-.18,2.42.97,2.19,2.17-.16,1.06-1.04,1.91-.97,3.02.18.78.81,1.31,1.32,1.85,9.03,9.01,18.05,18,27.04,27.03.5.44.99,1.03,1.7,1.03,1.06,0,1.87-.8,2.88-.97,1.17-.19,2.31.95,2.17,2.12-.07.8-.55,1.48-1.09,2.03-4.54,4.52-9.06,9.08-13.6,13.6-.58.58-1.32,1.11-2.19,1.11-.96.05-1.87-.76-2-1.69-.12-1.24,1.02-2.16.99-3.39-.05-.58-.46-1.06-.85-1.48-7.93-7.91-15.84-15.84-23.78-23.76,6.55,12.17,13.16,24.31,19.71,36.48.11.18.19.37.28.58-.48.45-.94.92-1.4,1.4-13.12-6.46-26.23-13-39.34-19.48-2.07-1.02-4.12-2.23-6.45-2.51-.78-.11-1.31.53-1.87.94-.58.46-1.36.74-2.08.51-.87-.39-1.47-1.41-1.2-2.35.18-.64.62-1.17,1.08-1.63,4.24-4.22,8.46-8.46,12.7-12.66,6.61,3.23,13.23,6.39,19.85,9.63.21.16.44.32.64.53.11-.12.19-.25.3-.37l-.25.03c-3.48-6.62-7.14-13.16-10.62-19.78,4.38-4.35,8.71-8.71,13.07-13.05M83.85,32.73c.32-.58,1.22-.65,1.64-.16,1.78,1.8,3.6,3.6,5.41,5.41-2.01,2.03-4.04,4.05-6.08,6.06-.46-.53-1.08-.95-1.43-1.57.58-.99,1.2-2,1.36-3.16.3-1.61.04-3.3-.65-4.79-.19-.56-.62-1.22-.25-1.78M54.19,35.38c.35-.37.74-.76,1.25-.88.51-.11,1.15.21,1.22.78.12.62-.34,1.13-.46,1.73-.07.48.32.81.6,1.13,4.72,4.72,9.41,9.43,14.13,14.13.32.3.65.67,1.11.78.56-.05,1.04-.42,1.59-.55.67-.07,1.29.65,1.08,1.29-.09.48-.46.83-.78,1.17-2.3,2.3-4.59,4.59-6.89,6.87-.41.41-.94.83-1.54.69-.34-.14-.62-.41-.74-.74-.18-.78.65-1.41.46-2.19-.18-.3-.42-.53-.65-.78-2.15-2.14-4.29-4.31-6.46-6.45-.76.77-1.52,1.54-2.3,2.3-.53-.51-1.06-1.03-1.55-1.57.78-.76,1.54-1.54,2.31-2.3-1.91-1.87-3.8-3.78-5.69-5.67-.41-.39-.76-.81-1.24-1.09-.87-.28-1.7.94-2.53.26-.67-.48-.46-1.43.09-1.93,2.31-2.35,4.66-4.65,6.98-6.98"/>
  <path class="st1" d="M45.15,44.55c.53-.34,1.33-.12,1.57.48.25.72-.41,1.34-.42,2.05-.02.37.28.64.51.88,4.89,4.89,9.77,9.79,14.66,14.66.88.95,2.01-.69,2.97.02.62.5.41,1.47-.12,1.93-2.3,2.31-4.61,4.59-6.89,6.91-.37.35-.74.78-1.25.94-.57.16-1.25-.19-1.32-.79-.11-.71.53-1.25.49-1.94-.09-.3-.28-.55-.49-.78-4.63-4.61-9.25-9.24-13.87-13.87-.44-.41-.81-.92-1.4-1.13-.64-.04-1.17.44-1.78.51-.53.02-.99-.46-1.01-.97-.05-.55.34-.99.71-1.36,2.3-2.3,4.59-4.59,6.87-6.89.25-.23.48-.46.78-.64M32.38,57.18c1.06-1.02,2.08-2.08,3.14-3.13,1.86,1.8,3.67,3.67,5.53,5.49.32.35.71.67.88,1.13.21.87-.78,1.82-1.64,1.43-.87-.39-1.55-1.08-2.38-1.54-1.4-.87-3.02-1.41-4.68-1.22-.48-.49-1.01-.95-1.43-1.48.14-.28.37-.48.58-.69M24.67,64.88c1.98-1.94,3.92-3.9,5.88-5.86,3.71,3.73,7.43,7.45,11.16,11.16,2.05,2.03,4.05,4.1,6.11,6.09.58.65,1.36.11,2-.12.64-.28,1.38.28,1.36.95,0,.46-.27.85-.56,1.17-2.4,2.38-4.77,4.77-7.15,7.15-.34.34-.76.67-1.25.64-.55.05-1.08-.48-1.03-1.01.04-.56.48-1.02.48-1.59.04-.48-.37-.78-.65-1.1-5.63-5.6-11.22-11.25-16.87-16.83.18-.23.34-.44.53-.65M157.24,63.15c2.19,2.16,4.36,4.33,6.52,6.52.69.65.19,1.96-.72,2.1-.85.12-1.5-.55-2.16-.99-1.75-1.2-3.82-2.33-6.01-1.96-.58-.53-1.15-1.08-1.62-1.69,1.36-1.31,2.67-2.65,3.99-3.98M22.87,66.74c.65.25,1.06.99,1.59,1.45-.28,2.05.69,3.97,1.84,5.58.34.51.74.99.95,1.57.23.78-.53,1.59-1.31,1.5-.44,0-.74-.37-1.02-.64-1.93-1.94-3.87-3.85-5.79-5.79,1.27-1.2,2.46-2.49,3.74-3.67M62.17,76.7c3.51-1.13,7.33-1.25,10.95-.51,6.15,1.31,11.59,4.91,15.93,9.38,4.26,4.31,7.65,9.72,8.8,15.74.64,3.3.49,6.77-.46,10-.94,3.2-2.63,6.15-4.77,8.69-.92-.97-1.93-1.87-2.81-2.86,0-.48.3-.88.39-1.34.48-1.55,0-3.3-1.18-4.43-8.73-8.74-17.49-17.49-26.21-26.23-.8-.81-1.8-1.47-2.95-1.55-.94-.12-1.86.21-2.74.53-.35.19-.58-.25-.81-.42-.71-.76-1.48-1.45-2.19-2.23,0-.05-.02-.16-.02-.21,2.35-2.01,5.11-3.59,8.07-4.54M85.99,75.73c.81.26,1.55.67,2.31,1.06,2.84,1.38,5.67,2.81,8.53,4.2.25.12.48.32.69.51,2.4,2.44,4.82,4.84,7.24,7.26,1.32,1.4,2.94,2.47,4.73,3.14,1.25.48,2.67.48,3.92.03.64-.21,1.33-.46,2-.25.68.28,1.15.92,1.22,1.66-.05.97-.67,1.78-1.32,2.46-2.16,2.19-4.34,4.36-6.54,6.52-.58.53-1.25,1.08-2.07,1.17-1.17.18-2.31-1.06-1.96-2.19.34-1.15.8-2.31.6-3.51-.28-2.01-1.43-3.8-2.7-5.33-4.79-4.8-9.59-9.59-14.4-14.41-.74-.78-1.55-1.48-2.26-2.31M139.86,80.53c1.33-1.32,2.67-2.65,3.99-3.99.58.48,1.09,1.04,1.64,1.57-.23,1.77.37,3.51,1.29,5,.48.85,1.17,1.57,1.59,2.46.23.42.07.9-.09,1.32,2.23,1.51,4.17,3.4,5.74,5.58,1.78,2.53,3.04,5.53,2.97,8.67.02,2.98-1.27,5.85-3.16,8.11-.51-.53-1.11-1.01-1.55-1.61.09-.65.41-1.29.25-1.94-.18-.85-.83-1.45-1.41-2.03-4.66-4.65-9.31-9.29-13.95-13.94-.46-.46-1.01-.88-1.66-.94-.62-.07-1.24.11-1.8.3-.55-.51-1.09-1.06-1.62-1.59,2.35-2.01,5.4-3.3,8.53-3.14,1.2-.03,2.37.25,3.53.51-1.41-1.47-2.92-2.84-4.28-4.35M47.43,90.9c.97-2.7,2.51-5.18,4.33-7.38.9.92,1.86,1.8,2.74,2.74.18.57-.28,1.1-.37,1.66-.46,1.52.14,3.18,1.26,4.27,8.58,8.6,17.19,17.19,25.79,25.79.83.9,1.84,1.75,3.11,1.94,1.13.18,2.24-.21,3.29-.6.95.95,1.91,1.89,2.86,2.84-2.08,1.82-4.5,3.25-7.08,4.26-3.89,1.5-8.23,1.75-12.31.85-6.2-1.36-11.66-5.09-16.02-9.63-4.03-4.22-7.28-9.4-8.43-15.17-.78-3.83-.53-7.89.85-11.57M127.71,96.01c.21-2.69,1.4-5.25,3.16-7.26.51.53,1.06,1.06,1.59,1.59-.19.64-.5,1.31-.32,1.98.11.6.51,1.08.94,1.5,4.66,4.65,9.29,9.31,13.95,13.95.55.53,1.08,1.17,1.85,1.38.71.19,1.43-.05,2.12-.27.53.53,1.08,1.06,1.59,1.63-2.23,1.84-5,3.13-7.93,3.13-2.84.12-5.63-.88-8-2.37-1.71-1.09-3.29-2.42-4.59-3.96.62,2.07.48,4.38-.49,6.33-.95,1.91-2.44,3.46-3.9,4.96-.53-.53-1.08-1.08-1.63-1.61.46-.74.76-1.63.48-2.49-.34-.88-1.06-1.52-1.7-2.19-1.31-1.33-2.63-2.65-3.96-3.97-.78-.72-1.61-1.55-2.72-1.63-.65-.07-1.24.27-1.78.58-.55-.53-1.08-1.08-1.62-1.61,2.12-2.14,4.54-4.35,7.65-4.73,2.54-.42,5.1.67,6.91,2.42-1.13-2.26-1.84-4.81-1.59-7.37M34.6,102.17c.53-.51,1.22-.9,1.96-.95,1.22-.07,2.33,1.2,2,2.38-.26.9-.92,1.7-.95,2.67.07.85.78,1.45,1.34,2.01l27.2,27.2c.42.41.9.81,1.5.87,1.02,0,1.82-.76,2.79-.99,1.17-.23,2.33.83,2.28,2-.04.8-.48,1.52-1.03,2.08l-13.69,13.69c-.6.58-1.34,1.09-2.21,1.09-1.06.04-2.05-.97-1.96-2.05.11-1.06.99-1.91,1.01-3-.04-.65-.55-1.15-.95-1.61-4.06-4.08-8.14-8.13-12.19-12.19-.16-.12-.37-.48-.6-.23-1.41,1.36-2.77,2.79-4.19,4.15-.95-.95-1.91-1.91-2.86-2.88,1.37-1.43,2.77-2.83,4.2-4.2,0-.07.02-.23.02-.3-3.83-3.76-7.6-7.58-11.41-11.37-.58-.55-1.13-1.24-1.94-1.43-1.11-.07-1.98.8-3.02.99-1.34.23-2.56-1.29-2.1-2.54.23-.88.94-1.52,1.55-2.12,4.42-4.43,8.85-8.83,13.25-13.27M113.47,106.94c2.12,1.98,4.12,4.1,6.2,6.13,3.96,3.98,7.93,7.95,11.91,11.92.28.23.55.55.92.62.76.07,1.36-.67,2.12-.53.46.16.88.6.83,1.11,0,.69-.58,1.17-1.01,1.63-2.49,2.46-4.95,4.95-7.44,7.4-.55.6-1.57.3-1.91-.37-.49-.83.85-1.71.14-2.47-5.13-5.11-10.24-10.22-15.35-15.35-.37-.33-.69-.76-1.13-.99-.76-.21-1.36.42-2.07.51-.55-.05-1.08-.53-1.04-1.1-.05-.62.41-1.09.79-1.5,2.35-2.33,4.7-4.68,7.03-7.01M97.71,122.68c2.1-2.07,4.15-4.2,6.29-6.24,1.89,1.91,3.8,3.8,5.69,5.71.64.62-.04,1.55-.69,1.84-.46.05-.88-.23-1.29-.41-1.62-.8-3.5-1.18-5.28-.72-1.13.23-2.12.87-3.11,1.45-.53-.55-1.06-1.09-1.61-1.62M89.13,131.28c2.44-2.47,4.91-4.89,7.35-7.35,3.96,3.9,7.86,7.88,11.84,11.78,3.04,3.02,6.04,6.08,9.1,9.08-2.37,2.44-4.8,4.8-7.17,7.22-.33.37-.81.58-1.25.78-.44-.16-.99-.32-1.13-.81-.26-.83.6-1.48.5-2.3-.35-.69-.97-1.18-1.5-1.73l-12.88-12.88c-.76-.71-1.4-1.55-2.3-2.08-.9-.18-1.71.97-2.58.35-.74-.48-.53-1.54.03-2.07M106.26,126.9c-.28-.72.39-1.57,1.15-1.45.35.09.62.32.87.57,1.85,1.87,3.73,3.71,5.56,5.58.6.62,1.38,1.15,1.62,2.03-.23.39-.48.92-1.01.97-.87.09-1.5-.6-2.28-.88-1.08-.53-2.34-.53-3.41.02-.56-.56-1.11-1.13-1.68-1.68.39-.83.56-1.78.28-2.67-.21-.9-.81-1.64-1.11-2.49M117.62,131.51c.37-.56,1.27-.65,1.71-.12,1.91,1.93,3.85,3.83,5.74,5.78-2.17,2.12-4.26,4.35-6.48,6.41-.51-.55-1.06-1.08-1.59-1.63,1.89-2.33,2.16-5.71.88-8.39-.23-.64-.72-1.41-.27-2.05"/>
  <path class="st0" d="M3.97,138.54c.71-.28,1.38-.72,2.16-.71.94.18,1.52,1.01,2.17,1.62,8.89,8.85,17.73,17.72,26.6,26.57.5.55,1.13,1.1,1.22,1.87-.03.76-.44,1.43-.76,2.1-10.48-.02-20.93-.02-31.39-.02,0-10.47-.02-20.97,0-31.44"/>
  <path class="st1" d="M86.2,138.06c3.14-.26,6.27.87,8.87,2.58,2.03,1.36,3.92,2.93,5.37,4.89,1.73,2.31,2.79,5.14,2.81,8.05.05,3.32-1.25,6.68-3.62,9.03-.55-.53-1.08-1.06-1.61-1.61.32-.6.69-1.24.58-1.94-.18-1.06-.9-1.93-1.63-2.65l-11.92-11.92c-.81-.79-1.73-1.66-2.93-1.75-.65-.07-1.24.26-1.78.58-.51-.56-1.22-.99-1.54-1.69,1.94-2,4.59-3.39,7.4-3.57Z"/>
</svg>